<svg xmlns="http://www.w3.org/2000/svg" xmlns:xlink="http://www.w3.org/1999/xlink" id="Layer_1" x="0px" y="0px" viewBox="0 0 300 300" style="enable-background:new 0 0 300 300;" xml:space="preserve"><style type="text/css">	.st0{display:none;}	.st1{display:inline;}</style><g class="st0">	<path class="st1" d="M285,201.1c0-2.5-0.6-3.1-3.1-3.1c-3.5,0-7,0-10.5,0h-20.6l1.7-5.3c0.5-1.6,1-3.1,1.5-4.6  c0.8-2.5,2.6-3.8,5.4-3.9c7.9-0.2,15.1-4,19.7-10.3c4.6-6.4,6-14.5,3.8-22.2c-0.5-1.9-0.4-4.1,0.3-5.8c3.1-7.2,2.4-13.9-2.2-20.4  c-1-1.4-1.6-3.2-1.6-4.9c-0.1-9-5.5-16.3-14.1-19c-1.8-0.6-3.5-1.8-4.7-3.3c-7.1-9.3-17.8-14.6-29.4-14.6c-10.8,0-20.8,4.7-27.7,13  c-2.6,3.2-5.8,4.5-8.8,5.8c-0.7,0.3-1.4,0.6-2.1,0.9l-5,2.3l2.3-6.3c0.2-0.7,0.4-1.2,0.6-1.7l5.5-14.2c3.5-9.1,7-18.2,10.5-27.3  c0.7-1.9,0.7-2.8,0.5-3.1c-0.2-0.4-0.8-1-2.8-1.7c-3.2-1.1-6.6-2.2-11.1-3.7c-1-0.3-1.7-0.5-2.3-0.5s-1.2,0-2.2,2.6  c-0.9,2.3-1.8,4.7-2.7,7l-2,5.1l-4.1-1.1V45.6c0-9,0-18,0-27c0-2.7-0.6-3.3-3.3-3.3c-2.3,0-4.7,0-7,0c-2.4,0-4.8,0-7.2,0h-1.6  c-3.4,0-3.9,0.4-3.9,3.8c0,6.6,0,13.1,0,19.7v18c0,0.6,0,1.2-0.1,1.7c0,0.2,0,0.5,0,0.7l-0.5,8.5l-3.9-7.6  c-1.5-2.9-2.6-5.9-3.8-8.7c-0.3-0.7-0.5-1.4-0.8-2.1c-0.8-2-1.6-2-2.1-2c-0.4,0-1,0.1-1.7,0.3c-3.1,1-6.3,2.1-9.3,3.1l-2,0.7  c-2.3,0.8-2.9,1.4-3.1,1.7c-0.2,0.4-0.2,1.3,0.6,3.4l4,10.4c4.8,12.5,9.7,25.4,14.7,38c2.4,6.2,3.6,12.6,3.5,19v0.2  c-0.1,5.3-0.8,6.2-6.2,7.6l-1.3,0.3l-0.9-0.9c-0.2-0.2-0.5-0.4-0.7-0.9c-0.3-0.5-0.5-1-0.8-1.5l-0.4-0.8  c-3.6-6.9-9.2-10.9-16.6-11.8c-2-0.2-4.1-0.4-6.7-0.4c-2.2,0-4.4,0.1-6.6,0.2h-0.6c-0.8,0-1.4,0.4-1.7,0.9c-0.4,0.6-0.4,1.4,0,2.2  c1.5,3.2,3.1,6.7,5.1,9.9c2.8,4.6,7.1,7.6,12.7,9c1.3,0.3,2.8,0.5,4.3,0.7c0.7,0.1,1.5,0.2,2.2,0.3l3,0.4l-5.8,13.5l-2.3-1.6  c-4.5-3.2-8.1-4.7-11.3-4.7c-4.8,0-9.7,3.3-16.5,11.1l-2.7,3.1l-1.2-3.9c-0.5-1.7-1-3.4-1.5-5.1c-1.1-3.9-2.2-7.5-3.5-11.1  c-1.7-4.8-4.9-8.8-9.8-12.4l-2.2-1.6L83,124c0.5-0.4,0.9-0.8,1.3-1.2c6-5.8,7.9-14.6,4.9-22.2c-3-7.7-10.5-12.8-19.1-13.1  c-2.1-0.1-4.4-0.8-6.1-2c-4.3-2.9-9.2-4.4-14.3-4.4C38,81.1,28,89,25.2,100.2c-0.6,2.6-1.8,4.6-3.7,6.5c-6,6.1-7.7,13.2-5.1,21  s8.1,12.4,16.4,13.8c1.2,0.2,2.3,0.3,3.6,0.4c0.6,0,1.2,0.1,1.8,0.2l2.4,0.2l-0.4,2.4c-1.2,7.9-0.4,12.7,3.1,19.8L59.8,198H19.3  c-4,0-4.3,0.3-4.3,4.3c0,23.3,0,77.6,0,77.6c0,4.8,0.1,4.8,4.9,4.8h231.6c10,0,20,0,30,0c2.9,0,3.4-0.8,3.4-3.1  C285,255.9,285,228.8,285,201.1z M188,122.6c-0.7-3.8,0.2-7.7,2.4-10.8c2.3-3.3,5.8-5.4,9.9-6c1.9-0.3,2.9-1,4.1-2.8  c6.1-9.3,15.1-14.2,26.6-14.7h0.2c11.6,0.5,20.5,5.3,26.6,14.3c1.3,2,2.5,2.8,4.5,3.1c4,0.6,7.4,2.8,9.7,5.9  c2.3,3.2,3.1,7.3,2.4,11.4c-0.3,1.4,0,2.3,1.1,3.4c5.9,6,6.6,13.1,1.9,19.9c-0.9,1.3-0.9,2.3,0,4.4c2.8,6.5,2.2,13.9-1.6,19.7  c-3.8,5.7-10.2,9.2-17.2,9.2l0,0c-0.3,0-0.5,0-0.8,0c-2.6-0.1-5.1-0.9-7.3-1.7c-4.2-1.5-8.3-3.2-11.4-4.6c-2.2-0.9-4.2-2-6.1-3.2  c-0.9-0.5-1.4-0.6-1.8-0.6c-0.6,0-1.2,0.2-2.1,0.6c-2.3,1.2-4.8,2.2-7.2,3.1c-1.1,0.4-2.3,0.9-3.4,1.4c-0.3,0.1-0.5,0.2-0.8,0.3  c-1,0.4-1.9,0.8-2.7,1.3c-3.5,2.2-7.5,3.4-11.5,3.4c-4.9,0-9.4-1.7-13.3-4.9c-7-5.9-9.2-15.5-5.4-23.9c0.9-2.1,0.9-3.4-0.4-5.1  c-4.2-6-3.4-13.6,1.8-18.8C187.9,125.5,188.3,124.4,188,122.6z M169.1,164.1c-0.5-1.8-0.5-4.2,0.3-6.2c1.1-3.1,2.3-6.1,3.6-9  c0.5-1.2,1-2.3,1.4-3.5l0.6-1.4h4.7l0.1,2.2c0,0.4,0,0.9,0.1,1.4c0.1,1.1,0.1,2.2,0.1,3.3c-0.1,1.7-0.2,3.3-0.3,5  c-0.2,2.7-0.4,5.5-0.4,8.1c0,5.2,0.2,10.6,0.7,16c0.1,1.7,0.7,3.5,1.7,5c1.3,2.1,2.8,4.1,4.4,6.2c0.7,1,1.5,2,2.2,3l2.7,3.6h-29  l1.8-3.3c0.5-1,1-1.9,1.6-2.9c1.1-2,2.2-3.9,2.9-5.8C171.1,178.8,171.4,171.6,169.1,164.1z M186.2,182.9l3.2-3.1  c4.8,3,9.7,4.5,14.9,4.5c0.3,0,0.5,0,0.8,0h0.1c1.7,0,3.1,1.5,3.5,2.6c0.7,1.8,1.4,3.7,2.1,5.6c0.3,0.7,0.5,1.5,0.8,2.3l1.1,3.1  h-17.6L186.2,182.9z M212.6,183l8.9-5.1l5.3,19.9h-9.9L212.6,183z M225.8,177.8l1.6-1c1.5-1,2.5-1.6,3.9-1.6s2.5,0.7,4.5,2l1.5,1  l-5.6,15.7L225.8,177.8z M241.4,178.3l9,4.9l-4.2,14.6h-9.8L241.4,178.3z M186.2,68l6.4-15.6l9.3,3.1l-0.9,2.2  c-0.9,2.2-1.7,4.4-2.6,6.6c-1.9,4.9-3.7,9.5-5.5,14.3c-1.2,3.2-2.5,6.4-3.8,9.5c-3,7.2-6,14.7-7.6,22.3c-1.9,9.1-5.3,17.6-8.7,25.8  c-2.1,5.2-4.3,10.5-6,16l-1.2,3.5l-2.6-2.6c-0.6-0.6-1.3-1.2-1.9-1.7c-1.7-1.4-3.4-2.8-4-4.9c-1-3.2-0.2-7,0.7-9.5  c3.9-10,8.1-20.1,12.2-29.9c1.5-3.7,3-7.3,4.5-11C178.5,86.7,182.3,77.4,186.2,68z M161.4,38.3c0-5.3,0-10.7,0-16V20h13.7v5.4  c0,5.1,0,10.1,0,15.2c0.1,13.8,0.1,28.1-0.2,42.2c-0.1,3.3-1.3,6.4-2.5,9.5c-0.5,1.3-1,2.6-1.4,3.8l-0.5,1.4l-4.3,0.4l-0.6-1.7  c-0.4-1.2-0.9-2.4-1.5-3.6c-1.3-2.9-2.6-5.9-2.6-9.1C161.3,68.4,161.4,53.1,161.4,38.3z M147.6,88.9c-1.7-4.3-3.5-8.7-5.1-13.1  c-1.4-4-3-8-4.6-12.2c-0.8-1.9-1.5-3.8-2.3-5.8l-0.9-2.2l9.3-3.2l2,5c0.8,2.1,1.7,4.2,2.5,6.3c1.4,3.7,2.9,7.5,4.3,11.2  c3.4,8.9,6.8,18.1,10.5,26.9c3.1,7.3,0.4,12.7-2.3,16.6l-3.2,4.7l-0.9-5.6C155.1,107.5,151.3,98,147.6,88.9z M148.8,135l3.3,1.9  v8.9l-10.4,2.5l-3.3-2.9L148.8,135z M136.4,133.5c-1.3,0.3-2.5,0.5-3.8,0.5c-6.6,0-12.6-4-15.3-10.3l-1.3-2.9l3.2-0.3  c0.8-0.1,1.6-0.1,2.4-0.1c7.8,0,13.5,3.5,16.4,10l1.1,2.5L136.4,133.5z M109.6,154.3c2.1-2.1,4.9-3.3,7.9-3.3  c3.5,0,6.8,1.7,8.7,4.6c1.7,2.6,4.5,4.1,7.6,4.1c3,0,5.8-1.5,7.6-4.1c2-2.9,5.1-4.5,8.5-4.5c3.2,0,6.4,1.4,8.7,4  c8.1,8.7,9.7,21.5,4.1,31.8c-0.4,0.7-0.7,1.4-1.1,2.1c-1.6,3.1-3.3,6.4-6.1,8.3c-1.6,1.1-3.6,1.2-4.9,1.2c-1.1,0-2.2-0.1-3.3-0.2  c-1-0.1-2-0.2-2.9-0.2h-0.1c-1.4,0-2.8,0-4.2,0h-6.4c-1.7,0-3.4,0-5.1,0c-1.7,0-3.4,0-5,0c-3.2,0-5.8,0-8.1,0.1h-0.2  c-2.4,0-4.1-1-5.4-3.1c-0.5-0.9-1-1.7-1.6-2.5c-3-4.8-6-9.7-6.5-16C101,167.8,103.7,160.4,109.6,154.3z M35.7,137.3  c-1.8,0-3.6-0.3-5.3-0.9c-6-2.2-9.7-6.6-10.6-12.9c-0.9-6.1,1.4-11.4,6.3-14.9c1.9-1.3,2.6-2.6,2.9-4.9c1-7.9,5.4-13.7,12.9-16.6  c2.6-1,5.3-1.6,7.8-1.6c4.6,0,8.9,1.6,12.7,4.9c1.6,1.3,3,1.9,4.9,1.9c0.4,0,0.8,0,1.2-0.1c0.5-0.1,1.1-0.1,1.6-0.1  c7.6,0,14.1,5.6,15.4,13.2c1.4,8.2-3.6,16-11.6,18.1c-0.6,0.2-1.1,0.2-1.6,0.2c-0.2,0-0.4,0-0.7,0l-3,0.3l0.5-2.9  c0.8-4.5,2.7-8.4,6.2-12.8c1.6-2,0.7-3,0.3-3.4c-0.4-0.5-1-0.7-1.5-0.7c-0.7,0-1.5,0.4-2.1,1.1c-3.4,3.8-5.8,8.3-7.3,13.8  c-0.3,1.1-0.9,1.8-1.6,2.7c-0.3,0.4-0.6,0.8-0.9,1.2l-2.4,3.6l-7.3-18.6c-0.1-0.3-0.2-0.5-0.3-0.8c-0.2-0.6-0.4-1.2-0.7-1.7  c-0.4-0.7-1-1.6-2-1.6c-0.3,0-0.6,0.1-0.9,0.2c-1.3,0.5-1.7,1.6-1.2,3c1.4,3.7,2.8,7.5,4.4,11.5c0.7,1.8,1.4,3.6,2.2,5.5l1.5,3.9  l-4.1-0.8c-0.6-0.1-1.1-0.2-1.5-0.3c-1-0.2-1.8-0.3-2.6-0.6c-2.2-0.8-4.4-1.7-6.6-2.6c-2.2-0.9-4.4-1.8-6.6-2.6  c-0.3-0.1-0.9-0.1-1.4-0.2h-0.4c-0.1,0-0.2,0-0.4,0c-2.4,0-2.5,1.2-2.6,1.8c-0.1,0.7-0.2,2.1,2.7,2.8c3.2,0.7,6.3,1.7,9.2,2.7  c1,0.3,1.8,0.9,2.6,1.4c0.3,0.2,0.5,0.4,0.8,0.5l2.3,1.4l-1.8,2.1C43,135.9,39.6,137.3,35.7,137.3z M59.8,183l-1.9,0.7l-6.1-12.2  l2.3-0.9c0.6-0.2,1.1-0.4,1.6-0.7c1.1-0.4,2.1-0.9,3.1-1.3c1.5-0.7,2.1-1.9,1.5-3.1c-0.5-1.1-1.5-1.3-2-1.3c-0.4,0-0.7,0.1-1.1,0.2  c-1.2,0.4-2.3,0.9-3.6,1.3c-0.6,0.2-1.2,0.5-1.8,0.7l-1.7,0.7l-1-1.5c-5.8-8.9-6.7-17-2.6-24.7c4.2-8,11.4-12.7,19.3-12.7  c0.8,0,1.6,0.1,2.4,0.1c11.4,1.3,17.8,6.6,21,17.2c1.6,5.3,3.1,10.6,4.7,16.2c0.7,2.5,1.4,5,2.2,7.5l1.3,4.5l-4.4-1.8  c-0.9-0.4-1.8-0.6-2.6-0.6c-2.1,0-4,1.2-5.9,2.6c-0.9,0.7-0.2,2,0,2.3c0.7,1.1,1.4,1.1,1.7,1.1c0.3,0,0.5-0.1,0.8-0.2  c1.6-0.5,3.1-1.3,4.7-2c0.7-0.3,1.4-0.6,2.1-0.9l2.4-1.1l0.7,2.6c0.3,0.9,0.5,1.9,0.7,2.9c0.5,2.2,1.1,4.5,1.9,6.6  c0.8,2,1.9,4,3,6.1c0.5,1,1.1,2,1.6,3l1.7,3.3H85.2c-1.5,0-3.1,0-4.6,0s-3,0-4.6,0c-2.5,0-4.6,0-6.5,0.1c-0.2,0-0.4,0-0.5,0  c-3.3,0-5.4-1.5-6.4-4.6c-0.2-0.6-0.5-1.3-0.9-2c-0.2-0.4-0.4-0.9-0.7-1.4l-1.1-2.2l2.3-0.9c0.8-0.3,1.5-0.6,2.3-0.9  c1.7-0.7,3.2-1.3,4.8-1.9c1.8-0.7,2.4-1.8,1.9-3.2c-0.3-0.9-1-1.3-2-1.3c-0.5,0-1,0.1-1.5,0.3c-1.7,0.6-3.5,1.3-5.3,2  C61.5,182.3,60.7,182.6,59.8,183z M19.7,202.7h260.5v22.5H19.7V202.7z M280.2,280.1H19.8v-22.6h260.3v22.6H280.2z M280.3,252.6  H19.8v-22.5h260.4v22.5H280.3z"></path>	<path class="st1" d="M285,201.1c0-2.5-0.6-3.1-3.1-3.1c-3.5,0-7,0-10.5,0h-20.6l1.7-5.3c0.5-1.6,1-3.1,1.5-4.6  c0.8-2.5,2.6-3.8,5.4-3.9c7.9-0.2,15.1-4,19.7-10.3c4.6-6.4,6-14.5,3.8-22.2c-0.5-1.9-0.4-4.1,0.3-5.8c3.1-7.2,2.4-13.9-2.2-20.4  c-1-1.4-1.6-3.2-1.6-4.9c-0.1-9-5.5-16.3-14.1-19c-1.8-0.6-3.5-1.8-4.7-3.3c-7.1-9.3-17.8-14.6-29.4-14.6c-10.8,0-20.8,4.7-27.7,13  c-2.6,3.2-5.8,4.5-8.8,5.8c-0.7,0.3-1.4,0.6-2.1,0.9l-5,2.3l2.3-6.3c0.2-0.7,0.4-1.2,0.6-1.7l5.5-14.2c3.5-9.1,7-18.2,10.5-27.3  c0.7-1.9,0.7-2.8,0.5-3.1c-0.2-0.4-0.8-1-2.8-1.7c-3.2-1.1-6.6-2.2-11.1-3.7c-1-0.3-1.7-0.5-2.3-0.5s-1.2,0-2.2,2.6  c-0.9,2.3-1.8,4.7-2.7,7l-2,5.1l-4.1-1.1V45.6c0-9,0-18,0-27c0-2.7-0.6-3.3-3.3-3.3c-2.3,0-4.7,0-7,0c-2.4,0-4.8,0-7.2,0h-1.6  c-3.4,0-3.9,0.4-3.9,3.8c0,6.6,0,13.1,0,19.7v18c0,0.6,0,1.2-0.1,1.7c0,0.2,0,0.5,0,0.7l-0.5,8.5l-3.9-7.6  c-1.5-2.9-2.6-5.9-3.8-8.7c-0.3-0.7-0.5-1.4-0.8-2.1c-0.8-2-1.6-2-2.1-2c-0.4,0-1,0.1-1.7,0.3c-3.1,1-6.3,2.1-9.3,3.1l-2,0.7  c-2.3,0.8-2.9,1.4-3.1,1.7c-0.2,0.4-0.2,1.3,0.6,3.4l4,10.4c4.8,12.5,9.7,25.4,14.7,38c2.4,6.2,3.6,12.6,3.5,19v0.2  c-0.1,5.3-0.8,6.2-6.2,7.6l-1.3,0.3l-0.9-0.9c-0.2-0.2-0.5-0.4-0.7-0.9c-0.3-0.5-0.5-1-0.8-1.5l-0.4-0.8  c-3.6-6.9-9.2-10.9-16.6-11.8c-2-0.2-4.1-0.4-6.7-0.4c-2.2,0-4.4,0.1-6.6,0.2h-0.6c-0.8,0-1.4,0.4-1.7,0.9c-0.4,0.6-0.4,1.4,0,2.2  c1.5,3.2,3.1,6.7,5.1,9.9c2.8,4.6,7.1,7.6,12.7,9c1.3,0.3,2.8,0.5,4.3,0.7c0.7,0.1,1.5,0.2,2.2,0.3l3,0.4l-5.8,13.5l-2.3-1.6  c-4.5-3.2-8.1-4.7-11.3-4.7c-4.8,0-9.7,3.3-16.5,11.1l-2.7,3.1l-1.2-3.9c-0.5-1.7-1-3.4-1.5-5.1c-1.1-3.9-2.2-7.5-3.5-11.1  c-1.7-4.8-4.9-8.8-9.8-12.4l-2.2-1.6L83,124c0.5-0.4,0.9-0.8,1.3-1.2c6-5.8,7.9-14.6,4.9-22.2c-3-7.7-10.5-12.8-19.1-13.1  c-2.1-0.1-4.4-0.8-6.1-2c-4.3-2.9-9.2-4.4-14.3-4.4C38,81.1,28,89,25.2,100.2c-0.6,2.6-1.8,4.6-3.7,6.5c-6,6.1-7.7,13.2-5.1,21  s8.1,12.4,16.4,13.8c1.2,0.2,2.3,0.3,3.6,0.4c0.6,0,1.2,0.1,1.8,0.2l2.4,0.2l-0.4,2.4c-1.2,7.9-0.4,12.7,3.1,19.8L59.8,198H19.3  c-4,0-4.3,0.3-4.3,4.3c0,23.3,0,77.6,0,77.6c0,4.8,0.1,4.8,4.9,4.8h231.6c10,0,20,0,30,0c2.9,0,3.4-0.8,3.4-3.1  C285,255.9,285,228.8,285,201.1z M188,122.6c-0.7-3.8,0.2-7.7,2.4-10.8c2.3-3.3,5.8-5.4,9.9-6c1.9-0.3,2.9-1,4.1-2.8  c6.1-9.3,15.1-14.2,26.6-14.7h0.2c11.6,0.5,20.5,5.3,26.6,14.3c1.3,2,2.5,2.8,4.5,3.1c4,0.6,7.4,2.8,9.7,5.9  c2.3,3.2,3.1,7.3,2.4,11.4c-0.3,1.4,0,2.3,1.1,3.4c5.9,6,6.6,13.1,1.9,19.9c-0.9,1.3-0.9,2.3,0,4.4c2.8,6.5,2.2,13.9-1.6,19.7  c-3.8,5.7-10.2,9.2-17.2,9.2l0,0c-0.3,0-0.5,0-0.8,0c-2.6-0.1-5.1-0.9-7.3-1.7c-4.2-1.5-8.3-3.2-11.4-4.6c-2.2-0.9-4.2-2-6.1-3.2  c-0.9-0.5-1.4-0.6-1.8-0.6c-0.6,0-1.2,0.2-2.1,0.6c-2.3,1.2-4.8,2.2-7.2,3.1c-1.1,0.4-2.3,0.9-3.4,1.4c-0.3,0.1-0.5,0.2-0.8,0.3  c-1,0.4-1.9,0.8-2.7,1.3c-3.5,2.2-7.5,3.4-11.5,3.4c-4.9,0-9.4-1.7-13.3-4.9c-7-5.9-9.2-15.5-5.4-23.9c0.9-2.1,0.9-3.4-0.4-5.1  c-4.2-6-3.4-13.6,1.8-18.8C187.9,125.5,188.3,124.4,188,122.6z M169.1,164.1c-0.5-1.8-0.5-4.2,0.3-6.2c1.1-3.1,2.3-6.1,3.6-9  c0.5-1.2,1-2.3,1.4-3.5l0.6-1.4h4.7l0.1,2.2c0,0.4,0,0.9,0.1,1.4c0.1,1.1,0.1,2.2,0.1,3.3c-0.1,1.7-0.2,3.3-0.3,5  c-0.2,2.7-0.4,5.5-0.4,8.1c0,5.2,0.2,10.6,0.7,16c0.1,1.7,0.7,3.5,1.7,5c1.3,2.1,2.8,4.1,4.4,6.2c0.7,1,1.5,2,2.2,3l2.7,3.6h-29  l1.8-3.3c0.5-1,1-1.9,1.6-2.9c1.1-2,2.2-3.9,2.9-5.8C171.1,178.8,171.4,171.6,169.1,164.1z M186.2,182.9l3.2-3.1  c4.8,3,9.7,4.5,14.9,4.5c0.3,0,0.5,0,0.8,0h0.1c1.7,0,3.1,1.5,3.5,2.6c0.7,1.8,1.4,3.7,2.1,5.6c0.3,0.7,0.5,1.5,0.8,2.3l1.1,3.1  h-17.6L186.2,182.9z M212.6,183l8.9-5.1l5.3,19.9h-9.9L212.6,183z M225.8,177.8l1.6-1c1.5-1,2.5-1.6,3.9-1.6s2.5,0.7,4.5,2l1.5,1  l-5.6,15.7L225.8,177.8z M241.4,178.3l9,4.9l-4.2,14.6h-9.8L241.4,178.3z M186.2,68l6.4-15.6l9.3,3.1l-0.9,2.2  c-0.9,2.2-1.7,4.4-2.6,6.6c-1.9,4.9-3.7,9.5-5.5,14.3c-1.2,3.2-2.5,6.4-3.8,9.5c-3,7.2-6,14.7-7.6,22.3c-1.9,9.1-5.3,17.6-8.7,25.8  c-2.1,5.2-4.3,10.5-6,16l-1.2,3.5l-2.6-2.6c-0.6-0.6-1.3-1.2-1.9-1.7c-1.7-1.4-3.4-2.8-4-4.9c-1-3.2-0.2-7,0.7-9.5  c3.9-10,8.1-20.1,12.2-29.9c1.5-3.7,3-7.3,4.5-11C178.5,86.7,182.3,77.4,186.2,68z M161.4,38.3c0-5.3,0-10.7,0-16V20h13.7v5.4  c0,5.1,0,10.1,0,15.2c0.1,13.8,0.1,28.1-0.2,42.2c-0.1,3.3-1.3,6.4-2.5,9.5c-0.5,1.3-1,2.6-1.4,3.8l-0.5,1.4l-4.3,0.4l-0.6-1.7  c-0.4-1.2-0.9-2.4-1.5-3.6c-1.3-2.9-2.6-5.9-2.6-9.1C161.3,68.4,161.4,53.1,161.4,38.3z M147.6,88.9c-1.7-4.3-3.5-8.7-5.1-13.1  c-1.4-4-3-8-4.6-12.2c-0.8-1.9-1.5-3.8-2.3-5.8l-0.9-2.2l9.3-3.2l2,5c0.8,2.1,1.7,4.2,2.5,6.3c1.4,3.7,2.9,7.5,4.3,11.2  c3.4,8.9,6.8,18.1,10.5,26.9c3.1,7.3,0.4,12.7-2.3,16.6l-3.2,4.7l-0.9-5.6C155.1,107.5,151.3,98,147.6,88.9z M148.8,135l3.3,1.9  v8.9l-10.4,2.5l-3.3-2.9L148.8,135z M136.4,133.5c-1.3,0.3-2.5,0.5-3.8,0.5c-6.6,0-12.6-4-15.3-10.3l-1.3-2.9l3.2-0.3  c0.8-0.1,1.6-0.1,2.4-0.1c7.8,0,13.5,3.5,16.4,10l1.1,2.5L136.4,133.5z M109.6,154.3c2.1-2.1,4.9-3.3,7.9-3.3  c3.5,0,6.8,1.7,8.7,4.6c1.7,2.6,4.5,4.1,7.6,4.1c3,0,5.8-1.5,7.6-4.1c2-2.9,5.1-4.5,8.5-4.5c3.2,0,6.4,1.4,8.7,4  c8.1,8.7,9.7,21.5,4.1,31.8c-0.4,0.7-0.7,1.4-1.1,2.1c-1.6,3.1-3.3,6.4-6.1,8.3c-1.6,1.1-3.6,1.2-4.9,1.2c-1.1,0-2.2-0.1-3.3-0.2  c-1-0.1-2-0.2-2.9-0.2h-0.1c-1.4,0-2.8,0-4.2,0h-6.4c-1.7,0-3.4,0-5.1,0c-1.7,0-3.4,0-5,0c-3.2,0-5.8,0-8.1,0.1h-0.2  c-2.4,0-4.1-1-5.4-3.1c-0.5-0.9-1-1.7-1.6-2.5c-3-4.8-6-9.7-6.5-16C101,167.8,103.7,160.4,109.6,154.3z M35.7,137.3  c-1.8,0-3.6-0.3-5.3-0.9c-6-2.2-9.7-6.6-10.6-12.9c-0.9-6.1,1.4-11.4,6.3-14.9c1.9-1.3,2.6-2.6,2.9-4.9c1-7.9,5.4-13.7,12.9-16.6  c2.6-1,5.3-1.6,7.8-1.6c4.6,0,8.9,1.6,12.7,4.9c1.6,1.3,3,1.9,4.9,1.9c0.4,0,0.8,0,1.2-0.1c0.5-0.1,1.1-0.1,1.6-0.1  c7.6,0,14.1,5.6,15.4,13.2c1.4,8.2-3.6,16-11.6,18.1c-0.6,0.2-1.1,0.2-1.6,0.2c-0.2,0-0.4,0-0.7,0l-3,0.3l0.5-2.9  c0.8-4.5,2.7-8.4,6.2-12.8c1.6-2,0.7-3,0.3-3.4c-0.4-0.5-1-0.7-1.5-0.7c-0.7,0-1.5,0.4-2.1,1.1c-3.4,3.8-5.8,8.3-7.3,13.8  c-0.3,1.1-0.9,1.8-1.6,2.7c-0.3,0.4-0.6,0.8-0.9,1.2l-2.4,3.6l-7.3-18.6c-0.1-0.3-0.2-0.5-0.3-0.8c-0.2-0.6-0.4-1.2-0.7-1.7  c-0.4-0.7-1-1.6-2-1.6c-0.3,0-0.6,0.1-0.9,0.2c-1.3,0.5-1.7,1.6-1.2,3c1.4,3.7,2.8,7.5,4.4,11.5c0.7,1.8,1.4,3.6,2.2,5.5l1.5,3.9  l-4.1-0.8c-0.6-0.1-1.1-0.2-1.5-0.3c-1-0.2-1.8-0.3-2.6-0.6c-2.2-0.8-4.4-1.7-6.6-2.6c-2.2-0.9-4.4-1.8-6.6-2.6  c-0.3-0.1-0.9-0.1-1.4-0.2h-0.4c-0.1,0-0.2,0-0.4,0c-2.4,0-2.5,1.2-2.6,1.8c-0.1,0.7-0.2,2.1,2.7,2.8c3.2,0.7,6.3,1.7,9.2,2.7  c1,0.3,1.8,0.9,2.6,1.4c0.3,0.2,0.5,0.4,0.8,0.5l2.3,1.4l-1.8,2.1C43,135.9,39.6,137.3,35.7,137.3z M59.8,183l-1.9,0.7l-6.1-12.2  l2.3-0.9c0.6-0.2,1.1-0.4,1.6-0.7c1.1-0.4,2.1-0.9,3.1-1.3c1.5-0.7,2.1-1.9,1.5-3.1c-0.5-1.1-1.5-1.3-2-1.3c-0.4,0-0.7,0.1-1.1,0.2  c-1.2,0.4-2.3,0.9-3.6,1.3c-0.6,0.2-1.2,0.5-1.8,0.7l-1.7,0.7l-1-1.5c-5.8-8.9-6.7-17-2.6-24.7c4.2-8,11.4-12.7,19.3-12.7  c0.8,0,1.6,0.1,2.4,0.1c11.4,1.3,17.8,6.6,21,17.2c1.6,5.3,3.1,10.6,4.7,16.2c0.7,2.5,1.4,5,2.2,7.5l1.3,4.5l-4.4-1.8  c-0.9-0.4-1.8-0.6-2.6-0.6c-2.1,0-4,1.2-5.9,2.6c-0.9,0.7-0.2,2,0,2.3c0.7,1.1,1.4,1.1,1.7,1.1c0.3,0,0.5-0.1,0.8-0.2  c1.6-0.5,3.1-1.3,4.7-2c0.7-0.3,1.4-0.6,2.1-0.9l2.4-1.1l0.7,2.6c0.3,0.9,0.5,1.9,0.7,2.9c0.5,2.2,1.1,4.5,1.9,6.6  c0.8,2,1.9,4,3,6.1c0.5,1,1.1,2,1.6,3l1.7,3.3H85.2c-1.5,0-3.1,0-4.6,0s-3,0-4.6,0c-2.5,0-4.6,0-6.5,0.1c-0.2,0-0.4,0-0.5,0  c-3.3,0-5.4-1.5-6.4-4.6c-0.2-0.6-0.5-1.3-0.9-2c-0.2-0.4-0.4-0.9-0.7-1.4l-1.1-2.2l2.3-0.9c0.8-0.3,1.5-0.6,2.3-0.9  c1.7-0.7,3.2-1.3,4.8-1.9c1.8-0.7,2.4-1.8,1.9-3.2c-0.3-0.9-1-1.3-2-1.3c-0.5,0-1,0.1-1.5,0.3c-1.7,0.6-3.5,1.3-5.3,2  C61.5,182.3,60.7,182.6,59.8,183z M19.7,202.7h260.5v22.5H19.7V202.7z M280.2,280.1H19.8v-22.6h260.3v22.6H280.2z M280.3,252.6  H19.8v-22.5h260.4v22.5H280.3z"></path>	<path class="st1" d="M246.5,113.7L246.5,113.7c-0.5,0.6-1.2,1.6-1.6,1.7c-0.5,0-1.4-0.4-2.2-0.7c-0.2-0.1-0.4-0.2-0.6-0.2  c0-0.1-0.1-0.3-0.1-0.3c-2.1-4.9-5.8-7.5-10.7-7.5h-0.2c-4.8,0.1-8.4,2.6-10.6,7.4c-0.3,0.6-1,1.7-2.1,1.7c-0.3,0-0.6-0.1-0.9-0.2  c-1.7-0.7-1.4-2.3-1.2-3.1c1.8-5.8,8.4-10.3,14.9-10.3c6.6,0,13.1,4.5,15,10.3c0.1,0.3,0.2,0.6,0.2,0.9  C246.4,113.4,246.5,113.5,246.5,113.7z"></path>	<path class="st1" d="M246.5,113.7L246.5,113.7c-0.5,0.6-1.2,1.6-1.6,1.7c-0.5,0-1.4-0.4-2.2-0.7c-0.2-0.1-0.4-0.2-0.6-0.2  c0-0.1-0.1-0.3-0.1-0.3c-2.1-4.9-5.8-7.5-10.7-7.5h-0.2c-4.8,0.1-8.4,2.6-10.6,7.4c-0.3,0.6-1,1.7-2.1,1.7c-0.3,0-0.6-0.1-0.9-0.2  c-1.7-0.7-1.4-2.3-1.2-3.1c1.8-5.8,8.4-10.3,14.9-10.3c6.6,0,13.1,4.5,15,10.3c0.1,0.3,0.2,0.6,0.2,0.9  C246.4,113.4,246.5,113.5,246.5,113.7z"></path>	<path class="st1" d="M210.6,145.7c-0.3,1.7-1.9,2-2.9,2c-0.2,0-0.4,0-0.7,0c-5.7-0.6-10.1-5.6-10.2-11.3c0-5.9,4.5-10.9,10.3-11.4  c0.2,0,0.4,0,0.5,0c1,0,2.7,0.3,2.8,2c0.2,1.3-0.8,2.2-2.7,2.5c-4.1,0.7-6.5,3.5-6.3,7c0.2,3.6,2.4,6,6.3,6.6  C209.9,143.5,210.8,144.3,210.6,145.7z"></path>	<path class="st1" d="M210.6,145.7c-0.3,1.7-1.9,2-2.9,2c-0.2,0-0.4,0-0.7,0c-5.7-0.6-10.1-5.6-10.2-11.3c0-5.9,4.5-10.9,10.3-11.4  c0.2,0,0.4,0,0.5,0c1,0,2.7,0.3,2.8,2c0.2,1.3-0.8,2.2-2.7,2.5c-4.1,0.7-6.5,3.5-6.3,7c0.2,3.6,2.4,6,6.3,6.6  C209.9,143.5,210.8,144.3,210.6,145.7z"></path>	<path class="st1" d="M47,213.9c0,1.2-0.9,2.1-2.2,2.2c-0.5,0-1,0.1-1.7,0.1c-0.5,0-1,0-1.5,0s-1,0-1.5,0s-1,0-1.6,0  c-0.5,0-1,0-1.5,0c-0.6,0-1.2,0-1.7-0.1c-1.3-0.1-2.2-1-2.2-2.2s0.9-2.2,2.1-2.2c1.6-0.1,3.2-0.1,4.8-0.1s3.2,0,4.7,0.1  C46.4,211.8,47,212.9,47,213.9z"></path>	<path class="st1" d="M47,213.9c0,1.2-0.9,2.1-2.2,2.2c-0.5,0-1,0.1-1.7,0.1c-0.5,0-1,0-1.5,0s-1,0-1.5,0s-1,0-1.6,0  c-0.5,0-1,0-1.5,0c-0.6,0-1.2,0-1.7-0.1c-1.3-0.1-2.2-1-2.2-2.2s0.9-2.2,2.1-2.2c1.6-0.1,3.2-0.1,4.8-0.1s3.2,0,4.7,0.1  C46.4,211.8,47,212.9,47,213.9z"></path>	<path class="st1" d="M156.9,214c0,1.2-0.9,2.1-2.3,2.2c-0.5,0-1,0.1-1.7,0.1c-0.5,0-0.9,0-1.4,0s-1,0-1.5,0h-0.1c-0.5,0-1,0-1.5,0  s-0.9,0-1.4,0c-0.6,0-1.1,0-1.6,0c-1.4-0.1-2.4-1-2.3-2.3c0-1.3,0.9-2.1,2.2-2.2c1.5-0.1,3.1-0.1,4.7-0.1c1.5,0,3,0,4.6,0.1  C156,211.8,156.9,212.7,156.9,214z"></path>	<path class="st1" d="M156.9,214c0,1.2-0.9,2.1-2.3,2.2c-0.5,0-1,0.1-1.7,0.1c-0.5,0-0.9,0-1.4,0s-1,0-1.5,0h-0.1c-0.5,0-1,0-1.5,0  s-0.9,0-1.4,0c-0.6,0-1.1,0-1.6,0c-1.4-0.1-2.4-1-2.3-2.3c0-1.3,0.9-2.1,2.2-2.2c1.5-0.1,3.1-0.1,4.7-0.1c1.5,0,3,0,4.6,0.1  C156,211.8,156.9,212.7,156.9,214z"></path>	<path class="st1" d="M266.7,213.9c0,1.2-0.9,2.1-2.2,2.2c-0.5,0-1,0.1-1.6,0.1c-0.5,0-1,0-1.5,0s-1,0-1.5,0s-1,0-1.6,0  c-0.5,0-1,0-1.5,0c-0.6,0-1.2,0-1.7-0.1c-1.3-0.1-2.2-1-2.2-2.2s0.9-2.2,2.1-2.2c1.6-0.1,3.2-0.1,4.8-0.1s3.2,0,4.7,0.1  S266.7,212.9,266.7,213.9z"></path>	<path class="st1" d="M266.7,213.9c0,1.2-0.9,2.1-2.2,2.2c-0.5,0-1,0.1-1.6,0.1c-0.5,0-1,0-1.5,0s-1,0-1.5,0s-1,0-1.6,0  c-0.5,0-1,0-1.5,0c-0.6,0-1.2,0-1.7-0.1c-1.3-0.1-2.2-1-2.2-2.2s0.9-2.2,2.1-2.2c1.6-0.1,3.2-0.1,4.8-0.1s3.2,0,4.7,0.1  S266.7,212.9,266.7,213.9z"></path>	<path class="st1" d="M47,241.3c0,1.3-0.9,2.2-2.3,2.3c-0.5,0-1,0-1.7,0c-0.5,0-1,0-1.5,0s-1,0-1.5,0s-1,0-1.5,0s-0.9,0-1.4,0  c-0.6,0-1.1,0-1.6-0.1c-1.3-0.1-2.2-1-2.3-2.2c0-1.3,0.9-2.2,2.2-2.3c1.5-0.1,3.1-0.1,4.6-0.1c1.6,0,3.1,0,4.7,0.1  C46.1,239.2,47,240.1,47,241.3z"></path>	<path class="st1" d="M47,241.3c0,1.3-0.9,2.2-2.3,2.3c-0.5,0-1,0-1.7,0c-0.5,0-1,0-1.5,0s-1,0-1.5,0s-1,0-1.5,0s-0.9,0-1.4,0  c-0.6,0-1.1,0-1.6-0.1c-1.3-0.1-2.2-1-2.3-2.2c0-1.3,0.9-2.2,2.2-2.3c1.5-0.1,3.1-0.1,4.6-0.1c1.6,0,3.1,0,4.7,0.1  C46.1,239.2,47,240.1,47,241.3z"></path>	<path class="st1" d="M156.9,241.3c0,1.1-0.7,2.2-2.1,2.2c-1.6,0.1-3.1,0.1-4.7,0.1c-1.6,0-3.2,0-4.8-0.1c-1.2-0.1-2.1-1-2.1-2.2  s0.9-2.1,2.2-2.2c0.5,0,1-0.1,1.7-0.1c0.5,0,0.9,0,1.4,0s1,0,1.5,0c0.6,0,1.1,0,1.6,0s1,0,1.5,0c0.6,0,1.2,0,1.7,0.1  C156,239.2,156.8,240.1,156.9,241.3z"></path>	<path class="st1" d="M156.9,241.3c0,1.1-0.7,2.2-2.1,2.2c-1.6,0.1-3.1,0.1-4.7,0.1c-1.6,0-3.2,0-4.8-0.1c-1.2-0.1-2.1-1-2.1-2.2  s0.9-2.1,2.2-2.2c0.5,0,1-0.1,1.7-0.1c0.5,0,0.9,0,1.4,0s1,0,1.5,0c0.6,0,1.1,0,1.6,0s1,0,1.5,0c0.6,0,1.2,0,1.7,0.1  C156,239.2,156.8,240.1,156.9,241.3z"></path>	<path class="st1" d="M266.7,241.3c0,1.1-0.7,2.2-2.1,2.2c-1.5,0.1-3.1,0.1-4.7,0.1s-3.2,0-4.8-0.1c-1.2-0.1-2.1-1-2.1-2.2  c0-1.3,0.9-2.2,2.4-2.3c0.5,0,1,0,1.6,0h0.6l0,0h2.3c0.5,0,1,0,1.5,0s1,0,1.5,0c0.6,0,1.2,0,1.7,0.1  C265.8,239.2,266.7,240.1,266.7,241.3z"></path>	<path class="st1" d="M266.7,241.3c0,1.1-0.7,2.2-2.1,2.2c-1.5,0.1-3.1,0.1-4.7,0.1s-3.2,0-4.8-0.1c-1.2-0.1-2.1-1-2.1-2.2  c0-1.3,0.9-2.2,2.4-2.3c0.5,0,1,0,1.6,0h0.6l0,0h2.3c0.5,0,1,0,1.5,0s1,0,1.5,0c0.6,0,1.2,0,1.7,0.1  C265.8,239.2,266.7,240.1,266.7,241.3z"></path>	<path class="st1" d="M47,268.7c0,1.3-0.9,2.2-2.3,2.3c-1.5,0.1-3.1,0.1-4.6,0.1c-1.6,0-3.1,0-4.7-0.1c-1.3-0.1-2.1-0.9-2.2-2.2  c0-1.3,0.9-2.2,2.3-2.3c0.5,0,1,0,1.7,0c0.5,0,0.9,0,1.4,0s1,0,1.4,0h0.2c0.4,0,0.9,0,1.3,0c0.4,0,0.9,0,1.3,0c0.5,0,1,0,1.5,0  C46.1,266.6,47,267.4,47,268.7z"></path>	<path class="st1" d="M47,268.7c0,1.3-0.9,2.2-2.3,2.3c-1.5,0.1-3.1,0.1-4.6,0.1c-1.6,0-3.1,0-4.7-0.1c-1.3-0.1-2.1-0.9-2.2-2.2  c0-1.3,0.9-2.2,2.3-2.3c0.5,0,1,0,1.7,0c0.5,0,0.9,0,1.4,0s1,0,1.4,0h0.2c0.4,0,0.9,0,1.3,0c0.4,0,0.9,0,1.3,0c0.5,0,1,0,1.5,0  C46.1,266.6,47,267.4,47,268.7z"></path>	<path class="st1" d="M156.9,268.7c0,1.3-0.9,2.2-2.3,2.3c-0.5,0-1,0.1-1.7,0.1c-0.5,0-1,0-1.5,0s-1,0-1.5,0s-1,0-1.5,0  s-0.9,0-1.4,0c-0.6,0-1.1,0-1.6-0.1c-1.4-0.1-2.3-1-2.3-2.3s0.9-2.1,2.2-2.2c1.5-0.1,3.1-0.1,4.6-0.1s3.1,0,4.6,0.1  C155.9,266.6,156.8,267.5,156.9,268.7z"></path>	<path class="st1" d="M156.9,268.7c0,1.3-0.9,2.2-2.3,2.3c-0.5,0-1,0.1-1.7,0.1c-0.5,0-1,0-1.5,0s-1,0-1.5,0s-1,0-1.5,0  s-0.9,0-1.4,0c-0.6,0-1.1,0-1.6-0.1c-1.4-0.1-2.3-1-2.3-2.3s0.9-2.1,2.2-2.2c1.5-0.1,3.1-0.1,4.6-0.1s3.1,0,4.6,0.1  C155.9,266.6,156.8,267.5,156.9,268.7z"></path>	<path class="st1" d="M266.7,268.7c0,1.4-0.9,2.2-2.6,2.3c-0.5,0-1.1,0-1.6,0s-1,0-1.5,0s-0.9,0-1.4,0s-0.9,0-1.4,0  c-0.4,0-0.9,0-1.3,0c-0.5,0-1,0-1.5,0c-1.5-0.1-2.4-0.9-2.5-2.2c0-1.3,0.9-2.2,2.3-2.3c1.4-0.1,2.9-0.1,4.5-0.1c1.4,0,3,0,4.5,0.1  S266.6,267.4,266.7,268.7z"></path>	<path class="st1" d="M266.7,268.7c0,1.4-0.9,2.2-2.6,2.3c-0.5,0-1.1,0-1.6,0s-1,0-1.5,0s-0.9,0-1.4,0s-0.9,0-1.4,0  c-0.4,0-0.9,0-1.3,0c-0.5,0-1,0-1.5,0c-1.5-0.1-2.4-0.9-2.5-2.2c0-1.3,0.9-2.2,2.3-2.3c1.4-0.1,2.9-0.1,4.5-0.1c1.4,0,3,0,4.5,0.1  S266.6,267.4,266.7,268.7z"></path>	<path class="st1" d="M86,156.8C85.9,156.9,85.9,156.9,86,156.8c-0.5,0.7-1.1,1.5-1.6,1.8c-2.4,1.3-5.1,2.2-7.7,3.1l-0.4,0.1  c-0.4,0.1-0.7,0.2-1,0.2c-1.2,0-1.7-0.8-2-1.4c-0.6-1.6,0.4-2.5,1.4-2.9c3.4-1.5,6-2.5,8.5-3.3c0.3-0.1,0.5-0.1,0.8-0.1  c0.5,0,0.9,0.2,1.3,0.5C85.6,155.3,85.9,156,86,156.8z"></path>	<path class="st1" d="M86,156.8C85.9,156.9,85.9,156.9,86,156.8c-0.5,0.7-1.1,1.5-1.6,1.8c-2.4,1.3-5.1,2.2-7.7,3.1l-0.4,0.1  c-0.4,0.1-0.7,0.2-1,0.2c-1.2,0-1.7-0.8-2-1.4c-0.6-1.6,0.4-2.5,1.4-2.9c3.4-1.5,6-2.5,8.5-3.3c0.3-0.1,0.5-0.1,0.8-0.1  c0.5,0,0.9,0.2,1.3,0.5C85.6,155.3,85.9,156,86,156.8z"></path>	<path class="st1" d="M122,183.7c-0.5,0.4-1,0.6-1.4,0.6c-0.5,0-1-0.2-1.5-0.7c-2.2-2-3.2-4.7-3.5-9.2c0.2-0.4,0.4-0.8,0.5-1.3  c0.7-1.9,1.7-4.2,2.9-6.3c0.3-0.5,0.7-0.8,1.2-0.8c0.4,0,0.8,0.1,1.2,0.3c1.2,0.6,1.5,1.3,1.2,2.6c-0.1,0.5-0.3,1-0.6,1.4  c-2.4,3.9-2.3,7.4,0.5,10.7C123.5,182.1,122.8,183.1,122,183.7z"></path>	<path class="st1" d="M122,183.7c-0.5,0.4-1,0.6-1.4,0.6c-0.5,0-1-0.2-1.5-0.7c-2.2-2-3.2-4.7-3.5-9.2c0.2-0.4,0.4-0.8,0.5-1.3  c0.7-1.9,1.7-4.2,2.9-6.3c0.3-0.5,0.7-0.8,1.2-0.8c0.4,0,0.8,0.1,1.2,0.3c1.2,0.6,1.5,1.3,1.2,2.6c-0.1,0.5-0.3,1-0.6,1.4  c-2.4,3.9-2.3,7.4,0.5,10.7C123.5,182.1,122.8,183.1,122,183.7z"></path></g><g class="st0">	<path class="st1" d="M212.3,284.7c-1.8,0-3.3-1.3-4.2-4c-0.1-0.1-0.1-0.2-0.2-0.3c-0.4-0.9-0.9-1.8-1.5-2.7  c-1.4-2.4-2.8-4.9-2.5-7.4c0.3-2.2,2.2-3.6,4.1-5.1c1-0.7,2-1.5,2.6-2.3c1.7-1.9,3.3-4,5.1-6.5c0.3-0.4,0.6-0.8,0.9-1.3  c-0.1,0-0.2,0-0.3,0c-20.6,0-36.1-9.6-46-28.7c-10.7-20.6-7-42.2-2.1-59.1h-33.5c0,1.6,0,3.2,0,4.8c0,4.9-0.1,10.1,0.1,15  c0.1,3.8-1.1,6.2-4.1,8.1c-6.3,4-12.5,8-19.1,12.3c-2.2,1.4-4.4,2.9-6.7,4.4c0.3,1.2,0.6,2.4,0.9,3.5c1.1,4.2,2.3,8.6,3.6,12.9  c0.2,0.5,1.1,1.3,2.1,1.8c1.5,0.7,3,1.3,4.5,2c7.1,3.1,14.4,6.3,21.8,8.9c0.4,0.2,0.9,0.2,1.5,0.2c1.3,0,2.9-0.4,4.4-0.8  c0.7-0.2,1.3-0.3,2-0.5c1.2-0.3,2.5-0.7,3.7-1.1c1.3-0.4,2.7-0.9,4.2-1.2c0.2,0,0.4-0.1,0.5-0.1c0.9,0,1.8,0.5,2.5,0.9  c0.3,0.2,0.5,0.3,0.8,0.4l1.7,0.7l-1,1.5c-0.2,0.3-0.3,0.6-0.5,0.9c-0.5,1-1.1,2-2.2,2.4c-0.8,0.3-1.5,0.6-2.3,0.8  c-4.5,1.7-9.2,3.4-14,3.4c-3.9,0-7.4-1.1-10.7-3.4c-1.5-1.1-3.4-1.7-5.5-2.5c-0.7-0.2-1.3-0.5-2-0.7c-0.5,1-1,1.9-1.4,2.9  c-1.7,3.5-3.6,7.1-5.5,10.6c-0.8,1.3-2,2.2-3.1,2.9c-0.5,0.3-0.9,0.6-1.3,0.9l-2.9,2.4l0.5-3.7c0.1-0.6,0.1-1.1,0.1-1.7  c0.1-1.5,0.2-3,0.8-4.4c1.5-3.3,3.1-6.5,4.9-9.8c0.5-0.9,0.9-1.8,1.4-2.8c-0.4-0.3-0.8-0.5-1.1-0.6c-9.5-1.6-11.9-9.6-12.8-15.5  c-1.5-9.2-5.8-17.4-10.1-25.3c-0.7-1.4-1.4-2.7-2.1-4.1c-0.4-0.8-1.6-1.7-2.5-2c-3.4-0.9-6.9-1.6-10.2-2.3  c-0.9-0.2-1.8-0.4-2.7-0.6c-7.7,16.6-12.2,53.1-9.3,75.9l44.4,0c27.1,0,56.1,0,85,0.1c1.6,0,3.1,0.7,4.5,1.4  c0.6,0.3,1.1,0.6,1.7,0.8l3.7,1.4l-3.7,1.3c-0.6,0.2-1.1,0.5-1.7,0.7c-1.4,0.7-2.9,1.3-4.6,1.3c-29.8,0.1-59.3,0.1-86.7,0.1l-42,0  c-7.2,0-7.9-0.7-7.9-8.2c0-32.1,0-64.2,0-96.4c0-7.4,0.6-8.1,7.5-8.1l27.8,0c-6.7-12.3-15.8-22-28.4-30.1l-4.7,4.6  c-4.3,4.2-8.6,8.3-12.9,12.5c-2.1,2-4.2,4-6.2,6.1c-5.8,5.6-11.8,11.4-17.7,17.1c-1.1,1-2.4,1.4-3.7,1.7c-0.5,0.1-1,0.3-1.4,0.4  l-2.6,0.9l0.6-2.7c0.1-0.5,0.2-1,0.2-1.5c0.2-1.3,0.4-2.6,1.1-3.8c11.6-18.4,24.1-38,36.7-57.2c1.4-2.1,4.4-3.8,7-4  c3.1-0.2,6.3-0.3,9.4-0.3c3,0,6.1,0.1,9.1,0.3c2.6,0.2,6.3,1.3,8.2,3.7c3.4,4.3,6.6,9.1,9.6,13.7c0.4,0.5,0.7,1.1,1.1,1.6  c0-8.3,0-16.6,0-24.9c0-15.5,0-31.5,0-47.3c0.1-15.8,8-28.6,20.7-33.4c3.4-1.3,6.9-1.9,10.3-1.9c14.8,0,27.2,11.8,29.4,28.1  c0.9,7.1,4,12.3,9.4,15.8c8.6,5.6,12.2,14.3,11,26.5c-0.1,1.5-1.1,2.7-2,3.7c-0.2,0.3-0.5,0.6-0.7,0.8c0.1,0.8,0.2,1.7,0.3,2.6  c0.3,2.5,0.6,5.2,0.6,7.9c0.1,4.2,0.1,6.3-1.1,7.6c-0.6,0.6-1.5,0.9-2.6,0.9c-0.7,0-1.6-0.1-2.6-0.3c0,1.8,0,3.6,0,5.5  c0,7.2,0,14.7-0.1,22c0,1.5-0.8,2.8-1.5,3.9c-0.3,0.5-0.5,0.9-0.7,1.3l-1.5,3.1l-1.2-3.2c-0.2-0.4-0.3-0.9-0.5-1.3  c-0.4-1.1-0.9-2.2-1.3-3.4c-0.3-0.9-0.2-1.9-0.1-2.8l0-0.3c0.5-5.3-0.1-8.8-4.1-11.2c-1.8-1.1-2.9-2.9-4-4.6  c-0.1-0.1-0.1-0.2-0.2-0.3c-0.4,0.4-0.8,0.8-1.2,1.2c-2.1,2.1-4.1,4.2-6.1,6.3c-0.6,0.6-1,1.8-1.1,2.9c-0.1,1.3-0.1,2.5,0,3.9  c0,1.5,0.1,3.1-0.1,4.7c-0.1,1.3-0.7,2.5-1.3,3.6c-0.2,0.4-0.4,0.8-0.6,1.3l-1.3,3.1l-1.4-3c-0.2-0.4-0.4-0.8-0.7-1.2  c-0.6-1.1-1.3-2.3-1.4-3.6c-0.1-6.6,0-13.3,0-19.8c0-2.2,0-4.4,0-6.7c0-0.5,0-1,0-1.6c-0.2,0-0.5,0.1-0.6,0.2  c-0.9,0.4-1.7,0.6-2.5,0.6c-1,0-1.8-0.3-2.4-1c-0.8-0.9-1.2-2.2-1.2-4.1c0.1-3.3,0.2-6.7,0.4-10.2c0.1-1.3,0.1-2.7,0.2-4  c-4.7-5-3-11.7-1.5-17.1l0.2-0.9c0.8-3,2.8-5.5,4.8-7.9c0.7-0.9,1.4-1.7,2-2.5c0.6-0.8,1.4-1.3,2.2-1.8c0.3-0.2,0.5-0.3,0.8-0.5  c5.4-3.9,8.5-8.3,9-13.1c0.6-5.2-1.9-11-7-16.7c-4.3-4.8-9.3-7.2-15-7.2c-3.2,0-6.5,0.8-9.9,2.3c-9.3,4.1-14.5,12.1-14.7,22.4  c-0.4,34.4-0.4,64.7,0,92.8c0.1,4.6,1.7,9.5,3.2,14.1c0.5,1.6,1.1,3.3,1.6,5c0.3,0.3,1.3,0.7,1.9,0.7c10.7,0.1,19.4,0.1,27.3,0.1  c11,0,20.9-0.1,30.1-0.2c0.7,0,2.4-1.3,2.8-2.2c12.6-33.1,31.6-60.7,48.6-83.3c1-1.3,2.4-2.9,4.3-2.9c2,0,3.3,1.7,4.1,3  c3.4,5.2,6.8,10.5,10.2,15.7c7.4,11.4,15.1,23.1,22.4,34.8c2.2,3.6,2.6,7.3,0.9,10.4c-1.6,3-4.8,4.7-8.8,4.8  c-2.6,0.1-5.2,0.1-7.9,0.1c-2.8,0-5.7,0-8.6-0.1c-5.4-0.1-8.1-3-8.2-8.9c-0.1-8.8-0.1-16.7,0-24c0-1.4-0.2-2.3-0.5-2.7  c-0.3-0.3-1-0.5-2.1-0.5c-1.2,0-2,0.2-2.4,0.6c-0.4,0.4-0.5,1.3-0.4,2.5c0.2,2.5,0.2,4.5-0.1,6.3c-0.6,4.8-3.6,7.3-8.6,7.3l-0.7,0  c-0.8,0-1.8,0-2.1,0.4c-0.3,0.3-0.4,0.9-0.4,1.8c0,2,0.5,2,2.6,2.1c0.3,0,0.5,0,0.8,0c6,0.2,8.5,3.2,8.5,10.1  c0,6.1-1.5,10.2-8.7,10.4c-1.9,0.1-4,0.1-6.4,0.1c-2.3,0-4.6,0-6.9-0.1c0,0,0,0,0,0c-1.5,0-2.1,0.2-2.2,2.3c0,1.1,0.1,1.8,0.5,2.1  c0.3,0.3,0.8,0.4,1.6,0.4l0.2,0c1.8-0.1,4-0.1,6.3-0.1c2.4,0,4.6,0.1,6.6,0.2c1.3,0.1,2.3,1,3.2,1.8c0.3,0.3,0.6,0.6,0.9,0.8  l1.8,1.3l-1.8,1.2c-0.3,0.2-0.6,0.4-0.9,0.7c-0.9,0.7-1.8,1.5-3.1,1.6c-2.9,0.1-5.5,0.2-8,0.2c-2.4,0-4.6-0.1-6.8-0.2  c-3.6-0.2-7.8-2.1-7.6-10.1c0.1-7.4,4.3-9.2,7.8-9.4c2.2-0.1,4.4-0.2,6.8-0.2c2.2,0,4.5,0,7,0.1c0.1,0,0.2,0,0.3,0  c0.9,0,1.5-0.1,1.8-0.4c0.3-0.3,0.5-1.1,0.5-2.2c0-2.9-0.6-3.4-2.7-3.4c-6.9-0.2-9.3-2.7-9.1-9.8c0.1-6.1,2.8-8.9,8.5-8.9  c0,0,0.1,0,0.1,0c1.4,0,2.3-0.2,2.7-0.7c0.4-0.5,0.6-1.5,0.4-3c-0.1-0.9-0.1-1.7,0-2.5l0-0.7c0.1-7,2.6-9.5,9.3-9.6l0.2,0  c7.1,0,9.6,2.5,9.7,9.6c0.1,8.5,0.1,16,0,23c0,1.6,0.2,2.6,0.6,3c0.3,0.3,0.9,0.5,1.8,0.5c0.1,0,0.3,0,0.4,0  c1.4-0.1,2.9-0.1,4.7-0.1c1.1,0,2.2,0,3.3,0c1.1,0,2.2,0,3.3,0c1.5,0,2.7,0,3.8-0.1c1.2,0,2-0.4,2.3-1c0.4-0.7,0.2-1.7-0.4-2.9  c-10-18.4-20.1-34.3-31-48.4c-0.2,0.2-0.3,0.4-0.5,0.6c-1.1,1.4-2.1,2.7-3.1,4.1c-15.6,21.3-33,47.2-43.9,78.4  c-6.4,18.4-8,32.9-5,47c5,23.5,24.7,37.5,40.7,37.5c1.5,0,3-0.1,4.4-0.4c0.4-0.1,0.9-0.1,1.3-0.1c2.2,0,4.1,1,5.1,2.8  c0.4,0.8,0.7,1.6,0.8,2.6c1-2.9,2.6-5.7,6.7-5.7c0.6,0,1.3,0.1,2.1,0.2c1.6,0.3,3.2,0.4,4.8,0.4c16.8,0,32.7-14.2,38-33.7  c3.8-14.1,2.8-28.8-3.1-47.6c-2.1-6.5-3.2-10.1-5.2-11.6c-1.9-1.5-5.2-1.5-11.7-1.5h-16c-0.2,0-0.5,0-0.7,0c-0.2,0-0.4,0-0.7,0  c-1.6,0-2.3,0.2-2.7,1.8c-0.4,1.4-2.6,2.1-3.3,2.1c-0.7,0-1.1-0.3-1.3-0.6c0,0-2.6-3.1-1.2-4.7c0.4-0.4,0.8-1,1.2-1.5  c1.6-2.1,3.3-4.2,5.5-4.3c4.8-0.2,9.8-0.4,14.9-0.4c5,0,10.2,0.1,15.8,0.3c2.6,0.1,6,2.5,7,5c7.2,17.5,14,38.5,9,61.7  c-4.9,22.8-22.1,39.7-42.8,42.2l-0.5,0.1c-0.9,0.1-1.9,0.2-2.9,0.2c-1,0-1.9-0.1-2.7-0.4c-0.7-0.3-1.4-0.4-1.9-0.4  c-1,0-2,0.3-2.8,4.4c-1.8,9.1-6.1,16.9-13.4,23.7C214.9,284,213.5,284.7,212.3,284.7z M213.3,275.5c4.5-4.4,7.6-10,9.6-17.3  c0.1-0.2,0.1-0.5,0.2-0.7c-2.2,3.8-4.9,7.3-7.6,10.6c-1.1,1.4-2.3,2.9-3.4,4.4l-0.1,0.2L213.3,275.5z M71.5,181.5  c0.7,0,1.5,0.1,2.4,0.3c4.5,1.1,9.1,2.1,13.8,3c3.5,0.7,5.7,2.5,7.3,5.9c1.7,3.8,3.6,7.4,5.6,11.2c0.6,1.1,1.2,2.2,1.8,3.4  c1.7-1.1,3.4-2.2,5-3.3c6.6-4.3,12.8-8.3,19-12.5c0.8-0.5,1.6-2.1,1.6-3.1c0.2-4.8,0.2-9.6,0.1-14.7c0-1.4,0-2.8,0-4.2H63.8v27.9  c0.9-2.9,1.7-5.8,2.4-8.7C66.4,185.4,67.3,181.5,71.5,181.5z M68.8,124.5c13.4,9.2,23.1,19.8,29.5,32.5c1.2,2.4,2.2,2.8,3.1,2.8  l0,0c0.3,0,0.6,0,0.9-0.1l-0.7-2.4c-4.4-15.9-9-32.3-20.2-45.2L68.8,124.5z M67.4,110.9c-3.1,0-5.3,0-7.4,0.1c-0.3,0-1,0.5-1.4,1  c-7.1,11-14.3,22.2-21.3,33.1l-0.1,0.2l35.3-34.3c-0.4,0-0.8,0-1.2,0C70,110.9,68.6,110.9,67.4,110.9z M154.8,96.1  c-0.5,0.7-1.1,1.3-1.7,2c-2.1,2.4-4.1,4.8-5.1,7.4c-1.1,2.7-1.2,5.9-1.4,9.3c0,0.8-0.1,1.6-0.1,2.4c0.2-0.3,0.4-0.7,0.5-1  c1.3-2.4,2.7-5,4.1-7.4c0.6-1,1.3-1.8,1.9-2.6c0.3-0.3,0.6-0.7,0.8-1l1.2-1.6l1.2,1.6c0.2,0.3,0.5,0.7,0.7,1  c0.6,0.8,1.2,1.5,1.7,2.4c1.4,2.4,2.7,4.9,4.2,7.7l0.1,0.2C164.2,107.7,160.2,102,154.8,96.1z M154.7,76.9c-0.4,0.5-0.9,1-1.3,1.5  c-1.9,2.2-3.9,4.5-6.4,6.3c-5.1,3.6-7.2,8.5-6.7,16c0.6-0.3,1.1-0.5,1.4-0.8c2.3-2.8,4.6-5.8,6.7-8.6c0.9-1.2,1.9-2.5,2.8-3.7  c0.6-0.7,1.2-1.5,1.8-2.2l0.8-1l1.2-1.5l1.1,1.5c0.2,0.3,0.5,0.6,0.7,0.9c0.6,0.8,1.2,1.5,1.8,2.4c0.4,0.7,0.7,1.3,1,2  c0.2,0.6,0.5,1.1,0.7,1.5c2.5,4.4,5.5,7.3,9.1,9.2c0.4-6.4-0.9-10.6-4.3-13.9c-2.6-2.6-5.4-5.1-8-7.5  C156.3,78.3,155.5,77.6,154.7,76.9z M152.4,59.5c-2.8,2.6-5.6,5.2-8.6,7.8c-4.2,3.6-5.9,8.1-5.3,14.3c5.5-2.4,9.5-6.4,12.4-12.5  c0.5-1.1,1.3-1.9,2-2.8c0.3-0.3,0.6-0.7,0.9-1l1.2-1.5l1.2,1.5c0.3,0.4,0.6,0.7,0.9,1c0.7,0.8,1.5,1.7,2,2.8  c2.8,5.8,6.8,9.9,12,12.3c1.1-4.8-0.6-10.3-4.4-13.7c-3.1-2.7-6.2-5.5-9.1-8.1l-2.7-2.4C154,57.9,153.2,58.7,152.4,59.5z"></path>	<path class="st1" d="M94.4,161.2c-7.6-14.9-18.1-25.3-31-33.4c-6.2,6-12.4,12-18.5,17.9c-8,7.7-15.9,15.5-23.9,23.1  c-1.1,1.1-3,1.2-4.5,1.8c0.4-1.6,0.3-3.5,1.1-4.8c12.1-19.1,24.3-38.2,36.7-57.2c1.2-1.8,3.8-3.1,5.9-3.3c6.1-0.4,12.2-0.4,18.2,0  c2.5,0.2,5.7,1.2,7.2,3.1c4.7,6,8.8,12.6,13.2,19c0-1.1,0.2-2.7,0.2-4.4c0-24.1,0-48.3,0-72.4c0.1-15.4,7.6-27.4,19.8-32  c17.3-6.5,35.1,5,37.7,25c1,7.7,4.4,13.1,10.1,16.8c9,5.8,11.4,14.6,10.4,25.1c-0.1,1.5-1.8,2.8-2.8,4.3c0.3,3.4,0.9,7.1,1,10.9  c0.2,7.7,0.1,7.7-6.3,6.4c0,9.7,0.1,19.5-0.1,29.2c0,1.6-1.4,3.1-2.1,4.6c-0.6-1.5-1.3-3-1.7-4.6c-0.2-0.8-0.1-1.7,0-2.5  c0.4-5.1,0.1-9.7-4.8-12.6c-2.1-1.2-3.3-4.1-4.7-5.9c-3,3-5.9,5.8-8.6,8.9c-0.8,0.9-1.4,2.5-1.5,3.8c-0.2,2.8,0.1,5.7-0.2,8.5  c-0.2,1.5-1.2,3-1.8,4.4c-0.7-1.4-1.9-2.8-1.9-4.2c-0.1-8.8,0-17.6,0.1-26.5c0-1,0-2,0-3.3c-1,0.2-1.9,0.2-2.7,0.5  c-2.9,1.2-4.1,0-4-3.1c0.1-4.8,0.4-9.6,0.6-14.8c-5-4.7-2.9-11.3-1.3-17.1c1-3.7,4.2-6.7,6.5-9.9c0.6-0.9,1.7-1.3,2.6-2  c13.1-9.4,12-21.1,2.2-32c-7.4-8.2-16.9-9.6-26.6-5.3c-9.5,4.2-15.4,12.4-15.5,23.7c-0.4,30.9-0.5,61.9,0,92.9  c0.1,6.6,3,13.1,4.9,19.6c0.3,0.9,2.1,1.6,3.3,1.6c19.2,0.1,38.3,0.1,57.5-0.1c1.4,0,3.6-1.7,4.1-3.2  c11.7-30.8,29.2-57.4,48.4-82.9c2.3-3,3.9-3.1,6,0c10.9,16.8,21.9,33.5,32.6,50.5c4.1,6.5,0.6,12.7-6.6,12.9  c-5.5,0.1-10.9,0.1-16.4,0c-4.6-0.1-6.6-2.4-6.7-7.4c-0.1-8-0.1-16,0-24c0.1-3.4-1-4.7-4.2-4.7c-3.2,0-4.5,1.2-4.2,4.7  c0.2,2,0.2,4-0.1,6c-0.6,4.4-3.4,6-7.2,6c-2.4,0-4.7-0.1-4.6,3.7c0.1,3.9,2.5,3.4,4.8,3.5c5.2,0.2,7,2.5,7,8.6  c0,6.5-1.8,8.8-7.2,8.9c-4.4,0.1-8.8,0.1-13.2,0c-2.4,0-3.6,0.9-3.7,3.8c-0.1,3.1,1.2,4.1,3.8,4c4.3-0.1,8.5-0.2,12.8,0.1  c1.2,0.1,2.2,1.5,3.4,2.3c-1.1,0.7-2.1,1.9-3.2,2c-4.9,0.2-9.7,0.3-14.6,0c-4.4-0.2-6.3-3.2-6.2-8.6c0.1-5,2.1-7.7,6.4-7.9  c4.6-0.2,9.1-0.2,13.7,0c2.8,0.1,4.2-0.8,4.2-4.2c0-3.3-0.9-4.8-4.2-4.9c-6.1-0.1-7.8-2.2-7.6-8.3c0.1-5.2,2-7.5,7.2-7.4  c3.7,0,5-1.5,4.6-5.3c-0.1-1,0-2,0-3c0.1-6.3,1.9-8.1,7.8-8.1c6.4,0,8.3,1.8,8.4,8.1c0.1,7.7,0.1,15.3,0,23c-0.1,3.5,0.9,5.2,4.4,5  c5-0.3,10,0.1,15-0.1c3.6-0.1,5-2.7,3.2-6.1c-9.5-17.5-19.9-34.2-32.4-50.1c-1.7,2.2-3.2,4.2-4.7,6.2  c-17.8,24.2-33.9,49.5-44.1,78.8c-5.4,15.4-8.6,31.2-5,47.8c5.6,26.4,29,41.3,46.9,38.3c4.4-0.7,6.9,3.3,4.5,7.6  c-3.1,5.4-7.2,10-10.9,15c-0.4-0.2-0.9-0.3-1.3-0.5c1,2.1,2,4.3,3.2,6.8c6-5.2,9.4-11.8,11.5-19.4c0.4-1.6,0.7-3.2,1.2-4.8  c1.2-3.8,2.8-5.8,7.3-5c18.9,3.2,38.5-12.1,44.5-34.4c4.5-16.5,1.9-32.6-3.2-48.4c-4.5-14.1-4.5-14.1-18.3-14.1c-5.3,0-10.6,0-16,0  c-2.3,0-4.6-0.4-5.6,2.9c-0.1,0.5-1.9,1.2-2.1,1c-0.6-0.7-1.5-2.5-1.2-2.7c1.8-2,3.7-5.2,5.7-5.3c10.2-0.5,20.4-0.4,30.5,0  c2,0.1,4.9,2.1,5.7,4.1c8,19.3,13.5,39.2,8.9,60.8c-4.8,22.3-21.3,38.6-41.6,41c-1.8,0.2-3.8,0.5-5.4,0c-4.5-1.6-5.9,1-6.7,5.1  c-1.8,9.3-6.4,16.7-12.9,22.9c-2.6,2.5-4.5,2.3-5.9-1.4c-0.1-0.2-0.2-0.3-0.2-0.4c-1.4-3.1-4.1-6.5-3.8-9.3  c0.3-2.4,4.3-4.2,6.4-6.5c2.6-2.9,4.8-6.2,8-10.3c-22.1,1.1-37.9-8.3-48.1-27.8c-10-19.2-7.6-39.4-1.5-59.9c-12.5,0-24.4,0-36.9,0  c0,7.2-0.1,14.3,0.1,21.3c0.1,3.2-0.9,5.2-3.4,6.8c-8.8,5.5-17.5,11.3-26.7,17.3c1.6,5.9,3,11.7,4.8,17.5c0.4,1.1,1.8,2.2,2.9,2.7  c8.8,3.8,17.5,7.7,26.4,10.9c2.6,0.9,5.9-0.4,8.8-1c2.7-0.6,5.2-1.8,7.9-2.3c0.9-0.2,2,0.7,3,1.2c-0.6,0.9-1.1,2.4-2,2.7  c-8.4,3-16.8,7-25.6,1c-2.5-1.7-5.6-2.4-9-3.8c-2.5,4.9-4.8,9.9-7.6,14.6c-0.9,1.5-2.7,2.3-4,3.5c0.2-1.9,0.1-4,0.8-5.7  c2-4.6,4.5-9,6.9-13.7c-1.2-0.7-1.9-1.3-2.8-1.5c-7.5-1.3-10.4-6.8-11.6-14.3c-1.8-11-7.4-20.3-12.4-29.8c-0.6-1.2-2.1-2.4-3.4-2.7  c-4.7-1.2-9.5-2.1-14.2-3.1c-8.3,16.7-13.1,55.4-9.8,79.1c1.7,0,3.5,0,5.3,0c41.8,0,83.6,0,125.4,0.1c1.9,0,3.8,1.4,5.7,2.1  c-1.9,0.7-3.9,2-5.8,2c-42.9,0.1-85.8,0.1-128.6,0.1c-6.4,0-6.4,0-6.4-6.7c0-32.1,0-64.2,0-96.4c0-6.6,0-6.6,6-6.6  C73.9,161.2,83.8,161.2,94.4,161.2z M129.5,165.9c-22.7,0-45,0-67.2,0c0,12.9,0,25.4,0,37.9c2.2-5.5,4-11.1,5.3-16.8  c0.9-3.9,2.7-4.6,6-3.8c4.6,1.1,9.2,2.2,13.8,3c2.9,0.5,4.8,2,6.2,5c2.5,5.4,5.4,10.6,8.2,16.1c8.8-5.7,17.2-11.1,25.5-16.7  c1.1-0.8,2.2-2.8,2.3-4.2C129.7,179.8,129.5,173.1,129.5,165.9z M104.3,160.6c-5.1-18.1-9.6-36.4-22.6-50.7  c-5.2,5-10,9.8-15.2,14.8c13,8.6,23.4,19,30.5,33C98.8,161.1,100.8,162,104.3,160.6z M172,83.5c2.2-5.8,0.3-12.6-4.4-16.8  c-4.4-3.9-8.8-7.9-12.8-11.5c-3.8,3.4-7.8,7.3-12.1,10.9c-5.2,4.5-6.7,10.1-5.6,17.5c7-2.5,11.7-7.2,15-14c0.6-1.3,1.8-2.3,2.7-3.5  c0.9,1.2,2.1,2.2,2.7,3.6C160.8,76.4,165.5,80.9,172,83.5z M139,102.8c1.5-0.8,3-1,3.9-2c3.3-4,6.4-8.2,9.6-12.3  c0.8-1.1,1.7-2.1,2.5-3.1c0.8,1.1,1.7,2.1,2.4,3.2c0.7,1.1,1,2.4,1.7,3.5c2.8,4.8,6.3,8.5,11.7,10.6c0.8-7.1,0-12.8-4.6-17.2  c-3.8-3.7-7.8-7.3-11.5-10.8c-2.6,2.7-5.2,6.3-8.5,8.7C139.6,88.1,138.1,94.5,139,102.8z M76.2,109.5c-6.4,0-11.3-0.1-16.3,0.1  c-0.9,0-2,0.8-2.6,1.6c-8.7,13.5-17.4,27.1-26.1,40.6c0.2,0.2,0.4,0.4,0.7,0.7C46.3,138.5,60.7,124.5,76.2,109.5z M163.7,120.8  c3.5-12.9-2.5-20-9-26.9c-2.8,3.7-6.4,6.9-8,11.1c-1.6,4.2-1.3,9.4-1.8,14.1c0.6,0.2,1.3,0.5,1.9,0.7c1.9-3.4,3.7-6.9,5.7-10.3  c0.7-1.3,1.8-2.3,2.6-3.4c0.8,1.1,1.6,2.1,2.3,3.3C159.3,112.8,161.2,116.2,163.7,120.8z"></path>	<path class="st1" d="M225.7,231.1c-9.9,0-19-6.5-23.3-16.4c-1.5,1.7-1.9,3.7-1.4,6.6c0.2,1.3-0.2,2.5-0.6,3.6  c-0.1,0.4-0.3,0.8-0.4,1.2l-0.7,2.9l-1.9-2.3c-0.3-0.3-0.6-0.6-0.9-1c-0.9-0.9-1.9-1.9-2.2-3.3c-1.2-5.4,0.2-10.2,4.3-14.4  c0.8-0.8,1.5-2.4,1.8-4c0.6-3.5,1.1-7.1,1.7-10.9c0.1-1,0.3-2,0.4-3c-0.4,0-0.8,0-1.2,0c-1,0-1.9,0-2.9,0c-1.8,0-3.3-0.1-4.7-0.2  c-1.2-0.1-2.2-0.9-3-1.7c-0.3-0.3-0.6-0.5-0.8-0.7l-1.7-1.2l1.7-1.2c0.3-0.2,0.5-0.4,0.8-0.7c0.8-0.7,1.7-1.5,2.9-1.7  c1.2-0.2,2.4-0.3,3.7-0.3c1.1,0,2.2,0.1,3.2,0.2c0.7,0.1,1.3,0.2,1.9,0.2c3,0,4.7-1.4,5.6-4.5c-0.6-0.7-1.1-1.4-1.7-2.1  c-1.8-2.3-3.8-4.7-5.4-7.3c-0.7-1.1-0.5-2.6-0.2-3.9c0.1-0.5,0.2-0.9,0.2-1.3l0.2-2.7l2.2,1.6c0.3,0.2,0.6,0.4,1,0.7  c0.8,0.5,1.7,1.1,2.4,2c0.5,0.6,1,1.2,1.6,1.8c1,1.2,2.1,2.5,3.3,3.7c0.3-3.7,1.4-6.5,3.4-8.5c2.3-2.4,5.8-3.6,10.6-3.6  c5,0,8.5,1.2,10.8,3.8c2.1,2.3,3.2,5.6,3.1,10c0.3-0.3,0.5-0.7,0.8-1c1.5-1.9,3-3.9,4.7-5.8c0.7-0.8,1.6-1.3,2.3-1.8  c0.3-0.2,0.6-0.4,0.9-0.6l2-1.4l0.4,2.4c0.1,0.3,0.2,0.7,0.3,1.2c0.3,1.3,0.7,2.6,0,3.7c-1.6,2.6-3.4,5.1-5.3,7.7  c-0.6,0.8-1.2,1.7-1.8,2.5c0.8,3.2,2.9,3.6,4.4,3.6c0.5,0,1,0,1.5-0.1c1-0.2,2-0.3,3.1-0.3c1.1,0,2.2,0.1,3.3,0.3  c1.2,0.2,2.3,0.9,3.3,1.5c0.4,0.2,0.8,0.5,1.2,0.7l2.5,1.3l-2.4,1.3c-0.4,0.2-0.8,0.5-1.2,0.8c-1,0.7-2.2,1.5-3.6,1.7  c-1.1,0.1-2.3,0.2-3.7,0.2c-0.9,0-1.7,0-2.5,0c-0.2,0-0.5,0-0.7,0c0.1,1.1,0.2,2.3,0.3,3.4c0.4,4.7,0.8,9.2,1.3,13.6  c0.1,0.3,0.8,0.9,1.2,1.3c0.2,0.2,0.5,0.4,0.7,0.7c4.2,4.2,5.8,10.6,3.8,15.6c-0.4,1.1-1.3,1.7-2.1,2.3c-0.3,0.2-0.5,0.4-0.8,0.6  l-1.6,1.4l-0.8-1.9c-0.1-0.3-0.3-0.6-0.4-0.9c-0.5-0.9-1.1-1.9-0.9-3.1c0.5-3.3,0.5-5.6-1-7.5C243.1,225.5,235,231.1,225.7,231.1z   M221.9,176.3c-0.5,0.2-1.1,0.3-1.5,0.4c-1.9,0.5-3.5,0.9-4.1,1.8c-5.8,7.8-8.8,16.6-8.8,26.2c0,10.7,7.9,19.1,17.9,19.1  c9.8,0,17.7-8.7,17.8-19.4c0-9-3.5-16.9-6.5-22.8c-1.8-3.4-3.5-4.9-5.8-4.9c-0.6,0-1.3,0.1-2,0.3c-0.1,0.6-0.1,1.2-0.1,1.8  c0,2.6,0,5.3,0,7.9c0,6.6,0,13.3-0.1,20c0,1.3-0.7,2.4-1.3,3.4c-0.2,0.4-0.4,0.8-0.6,1.1l-1.2,2.7l-1.4-2.6c-0.2-0.4-0.4-0.7-0.6-1  c-0.6-0.9-1.3-2-1.5-3.2c-0.3-1.6-0.2-3.2-0.2-4.8c0-0.6,0-1.3,0-1.9V176.3z M231.4,169.3c-0.3-2.5-1.2-3-5.2-3c-0.6,0-1.2,0-1.8,0  l-0.6,0c-1.7,0.1-3.3,0.1-4.1,0.9c-0.4,0.4-0.6,1.1-0.6,2H231.4z"></path>	<path class="st1" d="M202.9,212.1c-3.3,2.5-4.1,5.5-3.4,9.4c0.2,1.3-0.6,2.9-0.9,4.3c-1-1.2-2.6-2.3-2.9-3.7  c-1.1-5.1,0.4-9.4,3.9-13c1.1-1.2,1.9-3.1,2.2-4.8c0.9-5,1.5-10.1,2.3-15.7c-3.5,0-6.9,0.2-10.4-0.1c-1.1-0.1-2-1.4-3-2.1  c1-0.7,2-1.9,3-2.1c2.1-0.3,4.3-0.4,6.4-0.1c4.9,0.8,8.2-1,9.3-6.1c-2.6-3.3-5.2-6.4-7.4-9.8c-0.6-0.9,0.1-2.9,0.2-4.4  c1.1,0.8,2.3,1.4,3.2,2.4c2.2,2.5,4.2,5.2,7.4,8c-0.4-10.5,4.3-14,12.6-14c8.5,0,13.1,3.9,12.3,14.5c0.6,0,1.2,0,1.7,0.1  c2.1-2.7,4.2-5.5,6.4-8.1c0.8-0.9,2-1.4,3-2.2c0.2,1.3,1,3,0.5,3.8c-2.1,3.5-4.6,6.8-7.4,10.7c0.7,3.8,3.1,6,7.7,5.2  c1.9-0.3,4-0.3,5.9,0c1.4,0.3,2.7,1.3,4.1,2c-1.4,0.8-2.8,2.1-4.3,2.2c-2.8,0.4-5.7,0.1-8.3,0.1c0.6,6.6,1,12.6,1.7,18.6  c0.1,1,1.4,2,2.3,2.8c3.7,3.7,5.2,9.5,3.5,14c-0.4,1-1.6,1.6-2.5,2.3c-0.4-1.1-1.4-2.2-1.2-3.1c0.6-4,0.6-7.6-2.9-10.1  C236.5,237.8,210.1,232.6,202.9,212.1z M227.4,175.9c-0.1,1-0.2,1.9-0.2,2.9c0,9.3,0.1,18.6-0.1,27.9c0,1.3-1.1,2.6-1.7,4  c-0.7-1.2-1.7-2.4-1.9-3.7c-0.3-2.1-0.1-4.3-0.1-6.5c0-8.3,0-16.5,0-26.3c-3.5,1.3-6.9,1.4-8.3,3.3c-5.8,7.8-9.1,16.9-9.1,27.1  c0,11.6,8.7,20.6,19.4,20.6c10.6,0,19.2-9.3,19.2-20.9c0-8.6-2.9-16.2-6.7-23.5C235.7,176.5,232.8,173.8,227.4,175.9z M233,170.8  c-0.2-5.2-1.6-6.2-8.6-6c-3.4,0.1-7.3-0.1-6.8,6C222.8,170.8,227.9,170.8,233,170.8z"></path>	<path class="st1" d="M153.8,148.5c-0.2-0.2-0.4-0.5-0.6-0.7c-0.7-0.8-1.6-1.6-1.6-2.8c-0.2-5.5-0.2-11.2,0-17.5  c0-1.1,0.8-2,1.4-2.6c0.2-0.2,0.4-0.4,0.5-0.6l1.2-1.6l1.2,1.5c0.2,0.2,0.4,0.5,0.7,0.7c0.7,0.7,1.6,1.6,1.7,2.8  c0.2,2.1,0.2,4.2,0.1,6.2c0,0.5,0,0.9,0,1.4l0,1c0,0.8,0,1.6,0,2.4c0,2,0.1,4.1-0.1,6.2c-0.1,1.2-0.8,2-1.4,2.8  c-0.2,0.3-0.4,0.5-0.6,0.8l-1.1,1.8L153.8,148.5z"></path>	<path class="st1" d="M156.9,136.2c0,2.8,0.2,5.7-0.1,8.5c-0.1,1-1.2,2-1.8,3c-0.7-0.9-1.9-1.8-2-2.7c-0.2-5.8-0.1-11.6,0-17.5  c0-0.8,1.1-1.6,1.7-2.4c0.7,0.9,1.9,1.7,2,2.7C157.1,130.5,156.9,133.4,156.9,136.2C156.9,136.2,156.9,136.2,156.9,136.2z"></path></g><g>	<path d="M97.4,80c-7.7-6.5-15.2-12.7-22.6-19c-4-3.4-5.4-7.5-3.8-12.6c1-3.1,3.1-5.1,5.8-6.6c7.5-4.3,15.1-8.6,22.5-13.1  c1.3-0.8,2.4-2.2,3.1-3.6c2.1-4.7,5.6-7.3,10.7-7.3c13.8-0.1,27.5-0.1,41.3,0c5.2,0.1,8.7,2.8,10.8,7.6c0.5,1.2,1.6,2.5,2.7,3.1  c7.5,4.4,15,8.7,22.5,13.1c8.3,4.9,9.1,13.5,1.9,19.7c-6.5,5.6-13.1,11.1-19.7,16.6c-0.7,0.6-1.4,1.3-2.8,2.5  c3.1,0.4,5.5,0.8,7.8,0.9c6.8,0.2,13.4-0.6,19.9-2.9c4-1.4,7.5-3.6,9.7-7.5c2.5-4.3,7.9-5.6,12-3.2c4.2,2.5,5.7,7.4,3.4,11.9  c-4.9,9.6-13.2,14.6-23.4,16.8c-0.6,0.1-1.3,0.3-1.9,0.4c-0.1,0.3-0.1,0.6-0.2,0.8c1.8,0.4,3.7,1,5.5,1.3c5.9,0.8,8.8,4.3,8.1,9.6  c-0.6,4.5-4.8,7.1-10.1,6.6c-10.9-1.1-20.1-5.3-27.3-13.7c-0.9-1-1.6-2.2-2.4-3.3c-0.4,0.2-0.9,0.5-1.3,0.7c0.3,2.5,0.1,5.2,1,7.4  c2.1,5.1,4,10.4,7.2,14.9c4.9,7,10.8,13.3,16.6,20.3c8.6-13.9,20.7-20.9,36.2-21.1c11.1-0.1,21,4.2,28.9,12.2  c16.5,16.8,16.9,47.8-8.3,64.3c1.3,0.2,2,0.4,2.8,0.4c2.9,0.1,5.9,0,8.8,0.1c5,0.2,8.3,3.4,8.2,8.4c-0.1,4.5,1.2,9.2-1.7,13.4  c-0.2,0.3-0.1,1,0.1,1.4c2.6,6.1,2.6,12.2,0,18.3c-0.2,0.5-0.1,1.2,0.1,1.6c2.5,6,2.4,12,0.1,18.1c-0.2,0.6-0.2,1.5,0.1,2.1  c2.5,4.9,1.5,10.2,1,15.2c-0.4,3.6-4.3,6.1-8.6,6.2c-21.2,0.1-42.4,0.1-63.6,0c-1.8,0-4.1-0.6-5.4-1.8c-1.9-1.7-3.8-1.7-5.9-1.4  c-8.1,1.1-15.9,0.1-23.5-3c-1-0.4-2.5-0.3-3.5,0.2c-17.6,8.3-35.1,8.2-52.8,0.1c-1.2-0.5-3-0.5-4.3-0.1c-13,4.8-25.9,4.6-38.2-2  c-3.6-1.9-6-2.5-9.8-0.8c-6.1,2.7-12.6,3.8-19.4,2.6c-4-0.7-6.7-3.5-7.2-7.6c-0.4-4.2,0.7-8,2.7-11.5c3.2-5.7,6.5-11.3,10.1-16.8  c2.2-3.4,3-6.5,2.1-10.6c-5.8-29.6,1.5-55.8,21.1-78.6c6.2-7.2,12.7-14.3,19-21.5c5.8-6.8,11.2-13.8,13.2-22.8  c0.6-2.8,0.7-5.8,0.8-8.7c0-1.2-0.2-2.7-0.9-3.6C93.3,89.4,93.5,84.8,97.4,80z M167.3,271.5c1,0.4,1.9,1,2.9,1  c5.2,0.5,10.4,0.8,15.7,1.2c2.5,0.2,3.7-0.8,3.5-3.6c-0.2-3.4-0.5-6.9,1.7-9.9c0.3-0.4,0-1.3-0.2-1.8c-2.5-5.9-2.5-11.8,0-17.8  c0.3-0.6,0.2-1.5,0-2.1c-2.5-5.9-2.5-11.8,0-17.8c0.2-0.6,0.5-1.5,0.2-1.8c-2.2-2.9-1.6-6.3-1.8-9.6c-0.6-8.2,2.8-12.8,12.2-12  c2.5,0.2,5,0,7.4,0c-0.5-1.2-1.1-1.8-1.8-2.3c-15-10.7-21.2-28.3-15.9-45.9c0.7-2.2,0.2-3.5-1.2-5.2c-6.1-7.1-12.3-14.1-17.9-21.6  c-4.9-6.5-7.8-14-7.5-22.3c0.1-3.1-1-4.4-3.8-5.3c-5.9-1.9-11.8-3.9-18-4.4c-1.9,5.8,0.1,17.7,8,21.6c1.6,0.8,3,1.9,1.9,3.9  c-1.1,2-2.8,1.7-4.5,0.7c-5.1-2.8-8.6-6.9-9.9-12.5c-0.9-3.9-1-8.1-1.3-12.1c-0.1-1.3-0.2-2.4-1.8-2.3c-4.5,0.2-9.1,0.5-13.7,0.8  c0,2.7,0.1,4.9,0,7c-0.3,7.3-1.5,14.3-4.8,20.9c-0.8,1.7-2.4,2.4-3.8,1.4c-0.8-0.6-0.9-2.3-1-3.5c0-0.7,0.6-1.4,0.9-2.1  c3-7.1,3.7-14.4,3-22.4c-3.9,1.3-7.3,2.6-10.8,3.7c-1.7,0.5-2.3,1.4-2.2,3.2c0.4,7.8-1.7,15-6,21.3c-4,6-8.6,11.6-13.1,17.2  c-7.4,9.1-15.5,17.6-22.4,27c-11,15-15.5,32.1-14.3,50.7c0.6,10.8,3,21.2,6.1,31.4c0.6,1.9,0.6,3.5-1.3,4.1  c-2.2,0.8-3.2-0.8-3.7-2.6c-0.5-1.6-1-3.3-1.6-5c-0.5,0.3-0.9,0.4-1,0.6c-3.5,6-7.1,11.9-10.4,17.9c-0.9,1.6-1.2,3.7-1.3,5.6  c-0.1,2.3,1.1,3.9,3.7,3.9c2.3,0,4.7,0.3,7-0.1c5.5-0.9,11.3-1.7,14.9-6.5c2.2-2.9,3.2-6.6,5-9.8c0.6-1.1,1.8-2.4,2.9-2.6  c1.9-0.3,2.9,1.6,2,4.1c-1.3,3.8-3,7.5-4.6,11.4c6.1,7.2,28.6,8.5,35.2,3.9c-1.7-2.8-3.5-5.6-4.8-8.5c-0.4-0.9,0.7-2.4,1.2-3.6  c1.2,0.6,3,0.8,3.5,1.7c2.9,6.4,8.1,10.2,14.4,12.5c13.4,5,26.9,4.9,40.3-0.4c5.6-2.2,10.3-5.6,12.9-11.3c0.8-1.9,1.9-3.5,4.2-2.3  c2.1,1.1,1.5,3,0.6,4.6C170.7,266.4,169.1,268.8,167.3,271.5z M136.7,72c2.2,0.2,4.6,0.6,6.9,0.6c0.7,0,1.7-0.8,2-1.5  c4.9-13.2,9.8-26.5,14.5-39.8c1.5-4.3-1.1-8-5.6-8.1c-13.8-0.1-27.5-0.1-41.3,0c-4.4,0-7.1,3.7-5.6,7.8  c4.7,13.4,9.6,26.7,14.5,40.1c0.2,0.6,1.1,1.5,1.7,1.5c2.3-0.1,4.6-0.4,7.5-0.7c-0.9-4-1.2-8-2.7-11.5c-2.5-5.8-5.6-11.3-8.6-16.8  c-0.9-1.6-1.3-2.9,0.3-4.1c1.7-1.3,2.9-0.4,4,1c1.1,1.5,2.2,3,3.2,4.6c1.1,1.7,2.1,3.5,3.4,5.5c1-1.5,1.6-2.7,2.5-3.5  c3.4-3,6.9-5.9,10.5-8.7c0.6-0.5,2.4-0.2,3.1,0.4c0.6,0.5,0.7,2,0.5,2.9c-0.2,0.7-1.1,1.3-1.9,1.7c-5.4,2.8-8.7,7.3-11.4,12.6  c-0.3,0.7-0.7,1.5-0.5,2.2C134.5,62.7,135.6,67.3,136.7,72z M207.6,161.3c-0.9,12.1,10.6,22.9,22.3,23c10.8,0.2,23.2-8.6,23.3-22.8  c0.1-12.7-10.1-22.8-22.7-23C217.7,138.4,206.8,149.9,207.6,161.3z M230.4,262.3c-10.4,0-20.9,0-31.3,0c-3.4,0-4.6,1.1-4.7,4.5  c-0.1,1.1,0,2.1,0,3.2c0,6.3,0.8,7.1,7,7.1c19.3,0,38.7,0,58,0c1,0,2,0,2.9-0.1c2.6-0.2,3.9-1.5,3.9-4.2c0-2,0-3.9,0-5.9  c0-3.6-1.1-4.7-4.7-4.7C251.1,262.3,240.8,262.3,230.4,262.3z M230.3,202.5c-9.9,0-19.7,0-29.6,0c-5.7,0-6.4,0.7-6.4,6.4  c0,8.1,0.3,8.5,8.6,8.5c18.4,0,36.7,0,55.1,0c1.7,0,3.3-0.2,5-0.3c2.2-0.1,3.1-1.5,3.2-3.4c0.1-2.1,0.1-4.3,0-6.4  c0-3.6-1.1-4.6-4.8-4.6C251,202.5,240.7,202.5,230.3,202.5z M230.3,222.4c-10,0-19.9,0-29.9,0c-5.2,0-6.1,0.8-6.1,6.1  c0,8.4,0.3,8.8,8.6,8.8c18.3,0,36.5,0,54.8,0c1.7,0,3.3-0.3,5-0.3c2.5-0.1,3.4-1.6,3.5-3.8c0-2,0-3.9,0-5.9c0-3.8-1-4.9-4.8-4.9  C251,222.4,240.6,222.4,230.3,222.4z M230.5,242.3c-10.5,0-21.1,0-31.6,0c-3.1,0-4.3,1.1-4.5,4.1c-0.1,2.1-0.1,4.3,0,6.4  c0.1,2.4,1.2,4,4,4c12.8,0,25.6,0.2,38.3,0.2c8.5,0,17-0.2,25.5-0.2c2.9,0,4-1.5,4-4.2c0-2,0-3.9,0-5.9c-0.1-3.4-1.1-4.5-4.6-4.5  C251.2,242.3,240.8,242.3,230.5,242.3z M150.4,73.5c4.2,1.2,8,2.2,11.8,3.4c1.8,0.6,3,0.4,4.5-0.9c7.3-6.3,14.8-12.4,22.1-18.7  c4.6-3.8,4.2-8.3-1-11.3c-6.8-4-13.6-7.9-20.5-11.8c-0.6-0.4-1.3-0.6-2.3-1.1C160.1,46.8,155.2,60.1,150.4,73.5z M102.5,33.1  c-8.4,4.9-16.4,9.4-24.3,14.3c-3.4,2.1-3.3,6.7,0,9.5c7.7,6.6,15.5,13.1,23.3,19.5c0.7,0.5,1.8,1.1,2.6,0.9  c4.3-1.1,8.6-2.5,13.1-3.8C112.3,60.1,107.5,46.7,102.5,33.1z M133.3,77.7c-10.3-0.3-20.7,1.8-30.8,5.9c-2.5,1-3.5,2.8-2.7,5  c1.1,2.8,2.9,2.1,5,1.3c8.5-3.3,17.3-5.1,26.5-5.4c11.1-0.4,21.7,1.6,32,5.7c2.7,1.1,5-0.2,4.6-2.7c-0.3-1.4-1.7-3.2-3-3.7  C155,79.4,144.6,77.6,133.3,77.7z M182.1,87c3.2,4.7,7.5,6,12.8,4.8c0.7-0.1,1.4-0.2,2-0.3c9-1.6,16.4-5.6,20.9-13.9  c1.1-2,0.9-3.8-1.1-5.1c-2-1.3-3.9-0.7-5,1.3c-3.4,6-8.9,8.9-15.2,10.4C191.8,85.4,186.9,86.1,182.1,87z M174,88  c-3,3.5-1.5,5.8,1.2,7.9c0.8,0.6,1.4,1.4,2,2.1c6.4,7.3,14.3,11.2,23.9,11.9c2.2,0.1,4.1,0,4.4-2.5c0.2-2.4-1.8-2.7-3.7-3.3  c-4.2-1.2-8.5-2.3-12.3-4.3c-4-2.2-7.3-5.5-10.9-8.3C177.1,90.3,175.5,89.1,174,88z M194.7,159c2.2,0,4,0.2,5.8-0.1  c0.8-0.1,1.8-1.2,2.2-2c1.7-3.9,3.3-7.8,4.9-11.7c0.3-0.8,0.5-1.9,0.1-2.5c-1.1-1.7-2.5-3.2-4-5.2  C198.2,144.3,195.1,150.8,194.7,159z M203.7,185.3c1.3-1.6,2-2.8,3.1-3.8c1.6-1.4,1.6-2.4,0.5-4.4c-1.9-3.4-3.2-7.1-4.4-10.7  c-0.5-1.4-0.8-2.6-2.6-2.5c-1.2,0-2.3,0-3.5,0c-1.4,0-2.2,0.5-2,2.1C195.6,173,198.4,179.2,203.7,185.3z M211.9,183.9  c-1.2,1.1-3,2.7-4.7,4.3c3.3,4.6,13.6,8.6,18.7,8.8c0.6,0,1.7-1,1.9-1.8c0.3-1.3,0.2-2.7,0-4c-0.1-0.7-0.7-1.7-1.3-1.9  C221.8,187.4,217,185.7,211.9,183.9z M249.1,183.8c-5.4,1.9-10.1,3.6-14.8,5.4c-0.6,0.2-1.2,1-1.3,1.6c-0.2,2-0.1,4-0.1,6.4  c8.1-0.6,14.7-3.5,20.7-8.5C251.7,186.6,250,184.8,249.1,183.8z M206.6,134.8c1.7,1.5,3.1,2.9,4.8,4.1c0.6,0.4,1.7,0.3,2.5,0  c4.1-1.6,8.2-3.3,12.3-5.1c0.7-0.3,1.6-1,1.6-1.6c0.2-1.6,0.2-3.3,0-4.9c-0.1-0.5-1.2-1.4-1.7-1.3  C219,126.9,212.6,129.4,206.6,134.8z M232.9,125.8c0,2.1,0.1,3.8,0,5.5c-0.1,1.7,0.6,2.2,2.2,2.7c3.9,1.3,7.7,3.2,11.5,4.8  c0.8,0.3,2,0.6,2.5,0.2c1.6-1.3,3-2.9,4.7-4.6C247.5,129.3,241,126.4,232.9,125.8z M257,137.7c-1.5,1.7-2.9,3.2-4.1,4.9  c-0.4,0.5-0.4,1.6-0.1,2.3c1.7,4.1,3.4,8.2,5.2,12.3c0.3,0.7,1.2,1.7,1.8,1.7c2,0.1,4-0.3,6-0.5c0.1,0,0.2-0.7,0.2-1.1  C264.9,150.2,262.4,143.8,257,137.7z M256.8,185.4c5.5-6.2,8.1-12.6,9.1-19.6c0.1-0.4-0.1-1.3-0.3-1.3c-2-0.2-4-0.6-6-0.4  c-0.7,0-1.4,1.3-1.8,2.1c-1.7,3.9-3.4,7.8-4.9,11.7c-0.3,0.7-0.4,1.9,0,2.5C254,182.1,255.4,183.6,256.8,185.4z"></path>	<path d="M136.3,154c0,2.8,0,5.4,0,8c0,8.8,0.1,17.6,0,26.4c0,2.2,0.8,3,2.9,3.5c3.9,0.9,7.7,2,11.4,3.4  c14.6,5.6,14.8,23.3,8.1,31.6c-4.9,6.1-11.2,9.6-18.8,10.8c-2.8,0.4-4,1.4-3.6,4.3c0.2,1.3,0,2.7,0,4.1c0,1.8,0,3.8-2.4,3.9  c-2.4,0.1-2.6-1.9-2.5-3.8c0-1.5-0.1-2.9,0-4.4c0.3-2.7-0.9-3.7-3.5-4.1c-7.8-1.2-14.4-4.7-19.2-11.2c-2.4-3.3-3.8-7-3.9-11.1  c0-1.6,0.2-3.3,2.2-3c1.1,0.2,2.5,1.6,2.7,2.6c1.9,9.8,8.6,16.4,18.6,17.8c2,0.3,3.1-0.1,3.1-2.5c-0.1-10.7-0.1-21.5,0-32.2  c0-2.1-0.8-2.8-2.8-3.2c-3.7-0.8-7.4-1.9-10.9-3.2c-15.5-5.7-16.2-24.5-7.2-33.8c4.6-4.8,10.3-7.8,16.8-8.8c3-0.5,4.6-1.4,4.1-4.8  c-0.3-1.5,0-3.1,0-4.7c0-1.7,0.7-3.1,2.5-2.7c0.9,0.2,2.1,1.6,2.3,2.7c0.4,1.7,0.3,3.5,0.1,5.2c-0.5,3,1.1,3.9,3.7,4.2  c5.3,0.7,10.1,2.8,14.3,6.2c5.1,4.1,8.4,9.2,8.6,16c0,1.6-0.1,3.1-2.1,3.2c-2,0.2-2.7-1.2-2.9-2.9  C156.5,161.4,147.1,153.5,136.3,154z M136.4,233c8.3-1,15.1-3.8,19.3-11c3.3-5.7,3.2-11.8-0.6-17.1c-4.5-6.2-11.6-7-18.7-8.5  C136.4,208.9,136.4,220.6,136.4,233z M131.1,153.9c-6.7-0.2-14.2,3.6-18.1,8.7c-3.3,4.4-4,9.3-2.7,14.4  c1.8,7.2,12.1,13.4,20.8,12.6C131.1,177.8,131.1,165.9,131.1,153.9z"></path>	<path d="M232.9,151.3c0,2.3-0.1,4.6,0.1,6.9c0.1,0.7,1.1,1.5,1.9,1.8c4,1.3,6.6,3.8,6.6,8.3c0,4.3-2.5,6.9-6.3,8.7  c-0.9,0.4-1.5,1.7-2.3,2.4c-0.8,0.7-1.6,1.9-2.4,1.9c-0.8,0-1.6-1.2-2.4-1.9c-0.8-0.8-1.5-2-2.4-2.5c-3.3-1.6-5.9-3.7-6.2-7.5  c-0.1-1.1,0.9-2.9,1.9-3.3c1.6-0.7,2.5,0.6,3,2.3c0.4,1.3,1.5,2.4,2.4,3.9c2.5-4.4,1.4-8.3-2.2-9.9c-3.1-1.4-5-3.5-5.2-7.1  c-0.2-4.1,1.7-6.9,5.2-8.7c1.7-0.9,3.7-1.3,3.9-3.8c0-0.5,1.6-1.4,2.2-1.3c0.9,0.2,1.6,1.2,2.3,1.9c0.9,0.9,1.5,2.1,2.5,2.6  c3.2,1.7,5.8,3.8,6,7.6c0.1,1-1.1,2.1-1.7,3.1c-1-0.7-2.2-1.2-3-2c-1-1.2-1.7-2.6-2.5-4C233.7,151,233.3,151.2,232.9,151.3z   M226.7,158.3c0.3-0.2,0.6-0.5,0.9-0.7c0-2.1,0-4.2,0-6.6c-2.3,0.9-3.7,2.2-3.3,4.2C224.6,156.3,225.9,157.2,226.7,158.3z   M233.1,171.9c2.6-0.7,3.6-2.2,3.1-4.2c-0.3-1.1-1.5-2-2.3-2.9c-0.3,0.2-0.5,0.3-0.8,0.5C233.1,167.4,233.1,169.5,233.1,171.9z"></path></g></svg>