<svg xmlns="http://www.w3.org/2000/svg" xmlns:xlink="http://www.w3.org/1999/xlink" id="Layer_1" x="0px" y="0px" viewBox="0 0 300 300" style="enable-background:new 0 0 300 300;" xml:space="preserve"><g>	<path d="M285,201.1c0-2.5-0.6-3.1-3.1-3.1c-3.5,0-7,0-10.5,0l-20.6,0l1.7-5.3c0.5-1.6,1-3.1,1.5-4.6c0.8-2.5,2.6-3.8,5.4-3.9  c7.9-0.2,15.1-4,19.7-10.3c4.6-6.4,6-14.5,3.8-22.2c-0.5-1.9-0.4-4.1,0.3-5.8c3.1-7.2,2.4-13.9-2.2-20.4c-1-1.4-1.6-3.2-1.6-4.9  c-0.1-9-5.5-16.3-14.1-19c-1.8-0.6-3.5-1.8-4.7-3.3c-7.1-9.3-17.8-14.6-29.4-14.6c-10.8,0-20.8,4.7-27.7,13  c-2.6,3.2-5.8,4.5-8.8,5.8c-0.7,0.3-1.4,0.6-2.1,0.9l-5,2.3l2.3-6.3c0.2-0.7,0.4-1.2,0.6-1.7l5.5-14.2c3.5-9.1,7-18.2,10.5-27.3  c0.7-1.9,0.7-2.8,0.5-3.1c-0.2-0.4-0.8-1-2.8-1.7c-3.2-1.1-6.6-2.2-11.1-3.7c-1-0.3-1.7-0.5-2.3-0.5c-0.6,0-1.2,0-2.2,2.6  c-0.9,2.3-1.8,4.7-2.7,7l-2,5.1l-4.1-1.1V45.6c0-9,0-18,0-27c0-2.7-0.6-3.3-3.3-3.3c-2.3,0-4.7,0-7,0c-2.4,0-4.8,0-7.2,0h-1.6  c-3.4,0-3.9,0.4-3.9,3.8c0,6.6,0,13.1,0,19.7v18c0,0.6,0,1.2-0.1,1.7c0,0.2,0,0.5,0,0.7l-0.5,8.5l-3.9-7.6  c-1.5-2.9-2.6-5.9-3.8-8.7c-0.3-0.7-0.5-1.4-0.8-2.1c-0.8-2-1.6-2-2.1-2c-0.4,0-1,0.1-1.7,0.3c-3.1,1-6.3,2.1-9.3,3.1l-2,0.7  c-2.3,0.8-2.9,1.4-3.1,1.7c-0.2,0.4-0.2,1.3,0.6,3.4l4,10.4c4.8,12.5,9.7,25.4,14.7,38c2.4,6.2,3.6,12.6,3.5,19v0.2  c-0.1,5.3-0.8,6.2-6.2,7.6l-1.3,0.3l-0.9-0.9c-0.2-0.2-0.5-0.4-0.7-0.9c-0.3-0.5-0.5-1-0.8-1.5l-0.4-0.8  c-3.6-6.9-9.2-10.9-16.6-11.8c-2-0.2-4.1-0.4-6.7-0.4c-2.2,0-4.4,0.1-6.6,0.2l-0.6,0c-0.8,0-1.4,0.4-1.7,0.9  c-0.4,0.6-0.4,1.4,0,2.2c1.5,3.2,3.1,6.7,5.1,9.9c2.8,4.6,7.1,7.6,12.7,9c1.3,0.3,2.8,0.5,4.3,0.7c0.7,0.1,1.5,0.2,2.2,0.3l3,0.4  l-5.8,13.5l-2.3-1.6c-4.5-3.2-8.1-4.7-11.3-4.7c-4.8,0-9.7,3.3-16.5,11.1l-2.7,3.1l-1.2-3.9c-0.5-1.7-1-3.4-1.5-5.1  c-1.1-3.9-2.2-7.5-3.5-11.1c-1.7-4.8-4.9-8.8-9.8-12.4l-2.2-1.6l2.7-2.6c0.5-0.4,0.9-0.8,1.3-1.2c6-5.8,7.9-14.6,4.9-22.2  c-3-7.7-10.5-12.8-19.1-13.1c-2.1-0.1-4.4-0.8-6.1-2c-4.3-2.9-9.2-4.4-14.3-4.4c-11.7,0-21.7,7.9-24.5,19.1  c-0.6,2.6-1.8,4.6-3.7,6.5c-6,6.1-7.7,13.2-5.1,21c2.6,7.8,8.1,12.4,16.4,13.8c1.2,0.2,2.3,0.3,3.6,0.4c0.6,0,1.2,0.1,1.8,0.2  l2.4,0.2l-0.4,2.4c-1.2,7.9-0.4,12.7,3.1,19.8L59.8,198H19.3c-4,0-4.3,0.3-4.3,4.3c0,23.3,0,77.6,0,77.6c0,4.8,0.1,4.8,4.9,4.8  h231.6c10,0,20,0,30,0c2.9,0,3.4-0.8,3.4-3.1C285,255.9,285,228.8,285,201.1z M188,122.6c-0.7-3.8,0.2-7.7,2.4-10.8  c2.3-3.3,5.8-5.4,9.9-6c1.9-0.3,2.9-1,4.1-2.8c6.1-9.3,15.1-14.2,26.6-14.7h0.2c11.6,0.5,20.5,5.3,26.6,14.3c1.3,2,2.5,2.8,4.5,3.1  c4,0.6,7.4,2.8,9.7,5.9c2.3,3.2,3.1,7.3,2.4,11.4c-0.3,1.4,0,2.3,1.1,3.4c5.9,6,6.6,13.1,1.9,19.9c-0.9,1.3-0.9,2.3,0,4.4  c2.8,6.5,2.2,13.9-1.6,19.7c-3.8,5.7-10.2,9.2-17.2,9.2c0,0,0,0,0,0c-0.3,0-0.5,0-0.8,0c-2.6-0.1-5.1-0.9-7.3-1.7  c-4.2-1.5-8.3-3.2-11.4-4.6c-2.2-0.9-4.2-2-6.1-3.2c-0.9-0.5-1.4-0.6-1.8-0.6c-0.6,0-1.2,0.2-2.1,0.6c-2.3,1.2-4.8,2.2-7.2,3.1  c-1.1,0.4-2.3,0.9-3.4,1.4c-0.3,0.1-0.5,0.2-0.8,0.3c-1,0.4-1.9,0.8-2.7,1.3c-3.5,2.2-7.5,3.4-11.5,3.4c-4.9,0-9.4-1.7-13.3-4.9  c-7-5.9-9.2-15.5-5.4-23.9c0.9-2.1,0.9-3.4-0.4-5.1c-4.2-6-3.4-13.6,1.8-18.8C187.9,125.5,188.3,124.4,188,122.6z M169.1,164.1  c-0.5-1.8-0.5-4.2,0.3-6.2c1.1-3.1,2.3-6.1,3.6-9c0.5-1.2,1-2.3,1.4-3.5l0.6-1.4l4.7,0l0.1,2.2c0,0.4,0,0.9,0.1,1.4  c0.1,1.1,0.1,2.2,0.1,3.3c-0.1,1.7-0.2,3.3-0.3,5c-0.2,2.7-0.4,5.5-0.4,8.1c0,5.2,0.2,10.6,0.7,16c0.1,1.7,0.7,3.5,1.7,5  c1.3,2.1,2.8,4.1,4.4,6.2c0.7,1,1.5,2,2.2,3l2.7,3.6H162l1.8-3.3c0.5-1,1-1.9,1.6-2.9c1.1-2,2.2-3.9,2.9-5.8  C171.1,178.8,171.4,171.6,169.1,164.1z M186.2,182.9l3.2-3.1c4.8,3,9.7,4.5,14.9,4.5c0.3,0,0.5,0,0.8,0h0.1c1.7,0,3.1,1.5,3.5,2.6  c0.7,1.8,1.4,3.7,2.1,5.6c0.3,0.7,0.5,1.5,0.8,2.3l1.1,3.1h-17.6L186.2,182.9z M212.6,183l8.9-5.1l5.3,19.9h-9.9L212.6,183z   M225.8,177.8l1.6-1c1.5-1,2.5-1.6,3.9-1.6c1.4,0,2.5,0.7,4.5,2l1.5,1l-5.6,15.7L225.8,177.8z M241.4,178.3l9,4.9l-4.2,14.6h-9.8  L241.4,178.3z M186.2,68l6.4-15.6l9.3,3.1l-0.9,2.2c-0.9,2.2-1.7,4.4-2.6,6.6c-1.9,4.9-3.7,9.5-5.5,14.3c-1.2,3.2-2.5,6.4-3.8,9.5  c-3,7.2-6,14.7-7.6,22.3c-1.9,9.1-5.3,17.6-8.7,25.8c-2.1,5.2-4.3,10.5-6,16l-1.2,3.5l-2.6-2.6c-0.6-0.6-1.3-1.2-1.9-1.7  c-1.7-1.4-3.4-2.8-4-4.9c-1-3.2-0.2-7,0.7-9.5c3.9-10,8.1-20.1,12.2-29.9c1.5-3.7,3-7.3,4.5-11C178.5,86.7,182.3,77.4,186.2,68z   M161.4,38.3c0-5.3,0-10.7,0-16V20h13.7v5.4c0,5.1,0,10.1,0,15.2c0.1,13.8,0.1,28.1-0.2,42.2c-0.1,3.3-1.3,6.4-2.5,9.5  c-0.5,1.3-1,2.6-1.4,3.8l-0.5,1.4l-4.3,0.4l-0.6-1.7c-0.4-1.2-0.9-2.4-1.5-3.6c-1.3-2.9-2.6-5.9-2.6-9.1  C161.3,68.4,161.4,53.1,161.4,38.3z M147.6,88.9c-1.7-4.3-3.5-8.7-5.1-13.1c-1.4-4-3-8-4.6-12.2c-0.8-1.9-1.5-3.8-2.3-5.8l-0.9-2.2  l9.3-3.2l2,5c0.8,2.1,1.7,4.2,2.5,6.3c1.4,3.7,2.9,7.5,4.3,11.2c3.4,8.9,6.8,18.1,10.5,26.9c3.1,7.3,0.4,12.7-2.3,16.6l-3.2,4.7  l-0.9-5.6C155.1,107.5,151.3,98,147.6,88.9z M148.8,135l3.3,1.9v8.9l-10.4,2.5l-3.3-2.9L148.8,135z M136.4,133.5  c-1.3,0.3-2.5,0.5-3.8,0.5c-6.6,0-12.6-4-15.3-10.3l-1.3-2.9l3.2-0.3c0.8-0.1,1.6-0.1,2.4-0.1c7.8,0,13.5,3.5,16.4,10l1.1,2.5  L136.4,133.5z M109.6,154.3c2.1-2.1,4.9-3.3,7.9-3.3c3.5,0,6.8,1.7,8.7,4.6c1.7,2.6,4.5,4.1,7.6,4.1c3,0,5.8-1.5,7.6-4.1  c2-2.9,5.1-4.5,8.5-4.5c3.2,0,6.4,1.4,8.7,4c8.1,8.7,9.7,21.5,4.1,31.8c-0.4,0.7-0.7,1.4-1.1,2.1c-1.6,3.1-3.3,6.4-6.1,8.3  c-1.6,1.1-3.6,1.2-4.9,1.2c-1.1,0-2.2-0.1-3.3-0.2c-1-0.1-2-0.2-2.9-0.2h-0.1c-1.4,0-2.8,0-4.2,0l-6.4,0c-1.7,0-3.4,0-5.1,0  c-1.7,0-3.4,0-5,0c-3.2,0-5.8,0-8.1,0.1h-0.2c-2.4,0-4.1-1-5.4-3.1c-0.5-0.9-1-1.7-1.6-2.5c-3-4.8-6-9.7-6.5-16  C101,167.8,103.7,160.4,109.6,154.3z M35.7,137.3c-1.8,0-3.6-0.3-5.3-0.9c-6-2.2-9.7-6.6-10.6-12.9c-0.9-6.1,1.4-11.4,6.3-14.9  c1.9-1.3,2.6-2.6,2.9-4.9c1-7.9,5.4-13.7,12.9-16.6c2.6-1,5.3-1.6,7.8-1.6c4.6,0,8.9,1.6,12.7,4.9c1.6,1.3,3,1.9,4.9,1.9  c0.4,0,0.8,0,1.2-0.1c0.5-0.1,1.1-0.1,1.6-0.1c7.6,0,14.1,5.6,15.4,13.2c1.4,8.2-3.6,16-11.6,18.1c-0.6,0.2-1.1,0.2-1.6,0.2  c-0.2,0-0.4,0-0.7,0l-3,0.3l0.5-2.9c0.8-4.5,2.7-8.4,6.2-12.8c1.6-2,0.7-3,0.3-3.4c-0.4-0.5-1-0.7-1.5-0.7c-0.7,0-1.5,0.4-2.1,1.1  c-3.4,3.8-5.8,8.3-7.3,13.8c-0.3,1.1-0.9,1.8-1.6,2.7c-0.3,0.4-0.6,0.8-0.9,1.2l-2.4,3.6l-7.3-18.6c-0.1-0.3-0.2-0.5-0.3-0.8  c-0.2-0.6-0.4-1.2-0.7-1.7c-0.4-0.7-1-1.6-2-1.6c-0.3,0-0.6,0.1-0.9,0.2c-1.3,0.5-1.7,1.6-1.2,3c1.4,3.7,2.8,7.5,4.4,11.5  c0.7,1.8,1.4,3.6,2.2,5.5l1.5,3.9l-4.1-0.8c-0.6-0.1-1.1-0.2-1.5-0.3c-1-0.2-1.8-0.3-2.6-0.6c-2.2-0.8-4.4-1.7-6.6-2.6  c-2.2-0.9-4.4-1.8-6.6-2.6c-0.3-0.1-0.9-0.1-1.4-0.2l-0.4,0c-0.1,0-0.2,0-0.4,0c-2.4,0-2.5,1.2-2.6,1.8c-0.1,0.7-0.2,2.1,2.7,2.8  c3.2,0.7,6.3,1.7,9.2,2.7c1,0.3,1.8,0.9,2.6,1.4c0.3,0.2,0.5,0.4,0.8,0.5l2.3,1.4l-1.8,2.1C43,135.9,39.6,137.3,35.7,137.3z   M59.8,183l-1.9,0.7l-6.1-12.2l2.3-0.9c0.6-0.2,1.1-0.4,1.6-0.7c1.1-0.4,2.1-0.9,3.1-1.3c1.5-0.7,2.1-1.9,1.5-3.1  c-0.5-1.1-1.5-1.3-2-1.3c-0.4,0-0.7,0.1-1.1,0.2c-1.2,0.4-2.3,0.9-3.6,1.3c-0.6,0.2-1.2,0.5-1.8,0.7l-1.7,0.7l-1-1.5  c-5.8-8.9-6.7-17-2.6-24.7c4.2-8,11.4-12.7,19.3-12.7c0.8,0,1.6,0.1,2.4,0.1c11.4,1.3,17.8,6.6,21,17.2c1.6,5.3,3.1,10.6,4.7,16.2  c0.7,2.5,1.4,5,2.2,7.5l1.3,4.5l-4.4-1.8c-0.9-0.4-1.8-0.6-2.6-0.6c-2.1,0-4,1.2-5.9,2.6c-0.9,0.7-0.2,2,0,2.3  c0.7,1.1,1.4,1.1,1.7,1.1c0.3,0,0.5-0.1,0.8-0.2c1.6-0.5,3.1-1.3,4.7-2c0.7-0.3,1.4-0.6,2.1-0.9l2.4-1.1l0.7,2.6  c0.3,0.9,0.5,1.9,0.7,2.9c0.5,2.2,1.1,4.5,1.9,6.6c0.8,2,1.9,4,3,6.1c0.5,1,1.1,2,1.6,3l1.7,3.3H85.2c-1.5,0-3.1,0-4.6,0  c-1.5,0-3,0-4.6,0c-2.5,0-4.6,0-6.5,0.1c-0.2,0-0.4,0-0.5,0c-3.3,0-5.4-1.5-6.4-4.6c-0.2-0.6-0.5-1.3-0.9-2  c-0.2-0.4-0.4-0.9-0.7-1.4l-1.1-2.2l2.3-0.9c0.8-0.3,1.5-0.6,2.3-0.9c1.7-0.7,3.2-1.3,4.8-1.9c1.8-0.7,2.4-1.8,1.9-3.2  c-0.3-0.9-1-1.3-2-1.3c-0.5,0-1,0.1-1.5,0.3c-1.7,0.6-3.5,1.3-5.3,2C61.5,182.3,60.7,182.6,59.8,183z M19.7,202.7h260.5v22.5H19.7  V202.7z M280.2,280.1H19.8v-22.6h260.3V280.1z M280.3,252.6H19.8v-22.5h260.4V252.6z"></path>	<path d="M285,201.1c0-2.5-0.6-3.1-3.1-3.1c-3.5,0-7,0-10.5,0l-20.6,0l1.7-5.3c0.5-1.6,1-3.1,1.5-4.6c0.8-2.5,2.6-3.8,5.4-3.9  c7.9-0.2,15.1-4,19.7-10.3c4.6-6.4,6-14.5,3.8-22.2c-0.5-1.9-0.4-4.1,0.3-5.8c3.1-7.2,2.4-13.9-2.2-20.4c-1-1.4-1.6-3.2-1.6-4.9  c-0.1-9-5.5-16.3-14.1-19c-1.8-0.6-3.5-1.8-4.7-3.3c-7.1-9.3-17.8-14.6-29.4-14.6c-10.8,0-20.8,4.7-27.7,13  c-2.6,3.2-5.8,4.5-8.8,5.8c-0.7,0.3-1.4,0.6-2.1,0.9l-5,2.3l2.3-6.3c0.2-0.7,0.4-1.2,0.6-1.7l5.5-14.2c3.5-9.1,7-18.2,10.5-27.3  c0.7-1.9,0.7-2.8,0.5-3.1c-0.2-0.4-0.8-1-2.8-1.7c-3.2-1.1-6.6-2.2-11.1-3.7c-1-0.3-1.7-0.5-2.3-0.5c-0.6,0-1.2,0-2.2,2.6  c-0.9,2.3-1.8,4.7-2.7,7l-2,5.1l-4.1-1.1V45.6c0-9,0-18,0-27c0-2.7-0.6-3.3-3.3-3.3c-2.3,0-4.7,0-7,0c-2.4,0-4.8,0-7.2,0h-1.6  c-3.4,0-3.9,0.4-3.9,3.8c0,6.6,0,13.1,0,19.7v18c0,0.6,0,1.2-0.1,1.7c0,0.2,0,0.5,0,0.7l-0.5,8.5l-3.9-7.6  c-1.5-2.9-2.6-5.9-3.8-8.7c-0.3-0.7-0.5-1.4-0.8-2.1c-0.8-2-1.6-2-2.1-2c-0.4,0-1,0.1-1.7,0.3c-3.1,1-6.3,2.1-9.3,3.1l-2,0.7  c-2.3,0.8-2.9,1.4-3.1,1.7c-0.2,0.4-0.2,1.3,0.6,3.4l4,10.4c4.8,12.5,9.7,25.4,14.7,38c2.4,6.2,3.6,12.6,3.5,19v0.2  c-0.1,5.3-0.8,6.2-6.2,7.6l-1.3,0.3l-0.9-0.9c-0.2-0.2-0.5-0.4-0.7-0.9c-0.3-0.5-0.5-1-0.8-1.5l-0.4-0.8  c-3.6-6.9-9.2-10.9-16.6-11.8c-2-0.2-4.1-0.4-6.7-0.4c-2.2,0-4.4,0.1-6.6,0.2l-0.6,0c-0.8,0-1.4,0.4-1.7,0.9  c-0.4,0.6-0.4,1.4,0,2.2c1.5,3.2,3.1,6.7,5.1,9.9c2.8,4.6,7.1,7.6,12.7,9c1.3,0.3,2.8,0.5,4.3,0.7c0.7,0.1,1.5,0.2,2.2,0.3l3,0.4  l-5.8,13.5l-2.3-1.6c-4.5-3.2-8.1-4.7-11.3-4.7c-4.8,0-9.7,3.3-16.5,11.1l-2.7,3.1l-1.2-3.9c-0.5-1.7-1-3.4-1.5-5.1  c-1.1-3.9-2.2-7.5-3.5-11.1c-1.7-4.8-4.9-8.8-9.8-12.4l-2.2-1.6l2.7-2.6c0.5-0.4,0.9-0.8,1.3-1.2c6-5.8,7.9-14.6,4.9-22.2  c-3-7.7-10.5-12.8-19.1-13.1c-2.1-0.1-4.4-0.8-6.1-2c-4.3-2.9-9.2-4.4-14.3-4.4c-11.7,0-21.7,7.9-24.5,19.1  c-0.6,2.6-1.8,4.6-3.7,6.5c-6,6.1-7.7,13.2-5.1,21c2.6,7.8,8.1,12.4,16.4,13.8c1.2,0.2,2.3,0.3,3.6,0.4c0.6,0,1.2,0.1,1.8,0.2  l2.4,0.2l-0.4,2.4c-1.2,7.9-0.4,12.7,3.1,19.8L59.8,198H19.3c-4,0-4.3,0.3-4.3,4.3c0,23.3,0,77.6,0,77.6c0,4.8,0.1,4.8,4.9,4.8  h231.6c10,0,20,0,30,0c2.9,0,3.4-0.8,3.4-3.1C285,255.9,285,228.8,285,201.1z M188,122.6c-0.7-3.8,0.2-7.7,2.4-10.8  c2.3-3.3,5.8-5.4,9.9-6c1.9-0.3,2.9-1,4.1-2.8c6.1-9.3,15.1-14.2,26.6-14.7h0.2c11.6,0.5,20.5,5.3,26.6,14.3c1.3,2,2.5,2.8,4.5,3.1  c4,0.6,7.4,2.8,9.7,5.9c2.3,3.2,3.1,7.3,2.4,11.4c-0.3,1.4,0,2.3,1.1,3.4c5.9,6,6.6,13.1,1.9,19.9c-0.9,1.3-0.9,2.3,0,4.4  c2.8,6.5,2.2,13.9-1.6,19.7c-3.8,5.7-10.2,9.2-17.2,9.2c0,0,0,0,0,0c-0.3,0-0.5,0-0.8,0c-2.6-0.1-5.1-0.9-7.3-1.7  c-4.2-1.5-8.3-3.2-11.4-4.6c-2.2-0.9-4.2-2-6.1-3.2c-0.9-0.5-1.4-0.6-1.8-0.6c-0.6,0-1.2,0.2-2.1,0.6c-2.3,1.2-4.8,2.2-7.2,3.1  c-1.1,0.4-2.3,0.9-3.4,1.4c-0.3,0.1-0.5,0.2-0.8,0.3c-1,0.4-1.9,0.8-2.7,1.3c-3.5,2.2-7.5,3.4-11.5,3.4c-4.9,0-9.4-1.7-13.3-4.9  c-7-5.9-9.2-15.5-5.4-23.9c0.9-2.1,0.9-3.4-0.4-5.1c-4.2-6-3.4-13.6,1.8-18.8C187.9,125.5,188.3,124.4,188,122.6z M169.1,164.1  c-0.5-1.8-0.5-4.2,0.3-6.2c1.1-3.1,2.3-6.1,3.6-9c0.5-1.2,1-2.3,1.4-3.5l0.6-1.4l4.7,0l0.1,2.2c0,0.4,0,0.9,0.1,1.4  c0.1,1.1,0.1,2.2,0.1,3.3c-0.1,1.7-0.2,3.3-0.3,5c-0.2,2.7-0.4,5.5-0.4,8.1c0,5.2,0.2,10.6,0.7,16c0.1,1.7,0.7,3.5,1.7,5  c1.3,2.1,2.8,4.1,4.4,6.2c0.7,1,1.5,2,2.2,3l2.7,3.6H162l1.8-3.3c0.5-1,1-1.9,1.6-2.9c1.1-2,2.2-3.9,2.9-5.8  C171.1,178.8,171.4,171.6,169.1,164.1z M186.2,182.9l3.2-3.1c4.8,3,9.7,4.5,14.9,4.5c0.3,0,0.5,0,0.8,0h0.1c1.7,0,3.1,1.5,3.5,2.6  c0.7,1.8,1.4,3.7,2.1,5.6c0.3,0.7,0.5,1.5,0.8,2.3l1.1,3.1h-17.6L186.2,182.9z M212.6,183l8.9-5.1l5.3,19.9h-9.9L212.6,183z   M225.8,177.8l1.6-1c1.5-1,2.5-1.6,3.9-1.6c1.4,0,2.5,0.7,4.5,2l1.5,1l-5.6,15.7L225.8,177.8z M241.4,178.3l9,4.9l-4.2,14.6h-9.8  L241.4,178.3z M186.2,68l6.4-15.6l9.3,3.1l-0.9,2.2c-0.9,2.2-1.7,4.4-2.6,6.6c-1.9,4.9-3.7,9.5-5.5,14.3c-1.2,3.2-2.5,6.4-3.8,9.5  c-3,7.2-6,14.7-7.6,22.3c-1.9,9.1-5.3,17.6-8.7,25.8c-2.1,5.2-4.3,10.5-6,16l-1.2,3.5l-2.6-2.6c-0.6-0.6-1.3-1.2-1.9-1.7  c-1.7-1.4-3.4-2.8-4-4.9c-1-3.2-0.2-7,0.7-9.5c3.9-10,8.1-20.1,12.2-29.9c1.5-3.7,3-7.3,4.5-11C178.5,86.7,182.3,77.4,186.2,68z   M161.4,38.3c0-5.3,0-10.7,0-16V20h13.7v5.4c0,5.1,0,10.1,0,15.2c0.1,13.8,0.1,28.1-0.2,42.2c-0.1,3.3-1.3,6.4-2.5,9.5  c-0.5,1.3-1,2.6-1.4,3.8l-0.5,1.4l-4.3,0.4l-0.6-1.7c-0.4-1.2-0.9-2.4-1.5-3.6c-1.3-2.9-2.6-5.9-2.6-9.1  C161.3,68.4,161.4,53.1,161.4,38.3z M147.6,88.9c-1.7-4.3-3.5-8.7-5.1-13.1c-1.4-4-3-8-4.6-12.2c-0.8-1.9-1.5-3.8-2.3-5.8l-0.9-2.2  l9.3-3.2l2,5c0.8,2.1,1.7,4.2,2.5,6.3c1.4,3.7,2.9,7.5,4.3,11.2c3.4,8.9,6.8,18.1,10.5,26.9c3.1,7.3,0.4,12.7-2.3,16.6l-3.2,4.7  l-0.9-5.6C155.1,107.5,151.3,98,147.6,88.9z M148.8,135l3.3,1.9v8.9l-10.4,2.5l-3.3-2.9L148.8,135z M136.4,133.5  c-1.3,0.3-2.5,0.5-3.8,0.5c-6.6,0-12.6-4-15.3-10.3l-1.3-2.9l3.2-0.3c0.8-0.1,1.6-0.1,2.4-0.1c7.8,0,13.5,3.5,16.4,10l1.1,2.5  L136.4,133.5z M109.6,154.3c2.1-2.1,4.9-3.3,7.9-3.3c3.5,0,6.8,1.7,8.7,4.6c1.7,2.6,4.5,4.1,7.6,4.1c3,0,5.8-1.5,7.6-4.1  c2-2.9,5.1-4.5,8.5-4.5c3.2,0,6.4,1.4,8.7,4c8.1,8.7,9.7,21.5,4.1,31.8c-0.4,0.7-0.7,1.4-1.1,2.1c-1.6,3.1-3.3,6.4-6.1,8.3  c-1.6,1.1-3.6,1.2-4.9,1.2c-1.1,0-2.2-0.1-3.3-0.2c-1-0.1-2-0.2-2.9-0.2h-0.1c-1.4,0-2.8,0-4.2,0l-6.4,0c-1.7,0-3.4,0-5.1,0  c-1.7,0-3.4,0-5,0c-3.2,0-5.8,0-8.1,0.1h-0.2c-2.4,0-4.1-1-5.4-3.1c-0.5-0.9-1-1.7-1.6-2.5c-3-4.8-6-9.7-6.5-16  C101,167.8,103.7,160.4,109.6,154.3z M35.7,137.3c-1.8,0-3.6-0.3-5.3-0.9c-6-2.2-9.7-6.6-10.6-12.9c-0.9-6.1,1.4-11.4,6.3-14.9  c1.9-1.3,2.6-2.6,2.9-4.9c1-7.9,5.4-13.7,12.9-16.6c2.6-1,5.3-1.6,7.8-1.6c4.6,0,8.9,1.6,12.7,4.9c1.6,1.3,3,1.9,4.9,1.9  c0.4,0,0.8,0,1.2-0.1c0.5-0.1,1.1-0.1,1.6-0.1c7.6,0,14.1,5.6,15.4,13.2c1.4,8.2-3.6,16-11.6,18.1c-0.6,0.2-1.1,0.2-1.6,0.2  c-0.2,0-0.4,0-0.7,0l-3,0.3l0.5-2.9c0.8-4.5,2.7-8.4,6.2-12.8c1.6-2,0.7-3,0.3-3.4c-0.4-0.5-1-0.7-1.5-0.7c-0.7,0-1.5,0.4-2.1,1.1  c-3.4,3.8-5.8,8.3-7.3,13.8c-0.3,1.1-0.9,1.8-1.6,2.7c-0.3,0.4-0.6,0.8-0.9,1.2l-2.4,3.6l-7.3-18.6c-0.1-0.3-0.2-0.5-0.3-0.8  c-0.2-0.6-0.4-1.2-0.7-1.7c-0.4-0.7-1-1.6-2-1.6c-0.3,0-0.6,0.1-0.9,0.2c-1.3,0.5-1.7,1.6-1.2,3c1.4,3.7,2.8,7.5,4.4,11.5  c0.7,1.8,1.4,3.6,2.2,5.5l1.5,3.9l-4.1-0.8c-0.6-0.1-1.1-0.2-1.5-0.3c-1-0.2-1.8-0.3-2.6-0.6c-2.2-0.8-4.4-1.7-6.6-2.6  c-2.2-0.9-4.4-1.8-6.6-2.6c-0.3-0.1-0.9-0.1-1.4-0.2l-0.4,0c-0.1,0-0.2,0-0.4,0c-2.4,0-2.5,1.2-2.6,1.8c-0.1,0.7-0.2,2.1,2.7,2.8  c3.2,0.7,6.3,1.7,9.2,2.7c1,0.3,1.8,0.9,2.6,1.4c0.3,0.2,0.5,0.4,0.8,0.5l2.3,1.4l-1.8,2.1C43,135.9,39.6,137.3,35.7,137.3z   M59.8,183l-1.9,0.7l-6.1-12.2l2.3-0.9c0.6-0.2,1.1-0.4,1.6-0.7c1.1-0.4,2.1-0.9,3.1-1.3c1.5-0.7,2.1-1.9,1.5-3.1  c-0.5-1.1-1.5-1.3-2-1.3c-0.4,0-0.7,0.1-1.1,0.2c-1.2,0.4-2.3,0.9-3.6,1.3c-0.6,0.2-1.2,0.5-1.8,0.7l-1.7,0.7l-1-1.5  c-5.8-8.9-6.7-17-2.6-24.7c4.2-8,11.4-12.7,19.3-12.7c0.8,0,1.6,0.1,2.4,0.1c11.4,1.3,17.8,6.6,21,17.2c1.6,5.3,3.1,10.6,4.7,16.2  c0.7,2.5,1.4,5,2.2,7.5l1.3,4.5l-4.4-1.8c-0.9-0.4-1.8-0.6-2.6-0.6c-2.1,0-4,1.2-5.9,2.6c-0.9,0.7-0.2,2,0,2.3  c0.7,1.1,1.4,1.1,1.7,1.1c0.3,0,0.5-0.1,0.8-0.2c1.6-0.5,3.1-1.3,4.7-2c0.7-0.3,1.4-0.6,2.1-0.9l2.4-1.1l0.7,2.6  c0.3,0.9,0.5,1.9,0.7,2.9c0.5,2.2,1.1,4.5,1.9,6.6c0.8,2,1.9,4,3,6.1c0.5,1,1.1,2,1.6,3l1.7,3.3H85.2c-1.5,0-3.1,0-4.6,0  c-1.5,0-3,0-4.6,0c-2.5,0-4.6,0-6.5,0.1c-0.2,0-0.4,0-0.5,0c-3.3,0-5.4-1.5-6.4-4.6c-0.2-0.6-0.5-1.3-0.9-2  c-0.2-0.4-0.4-0.9-0.7-1.4l-1.1-2.2l2.3-0.9c0.8-0.3,1.5-0.6,2.3-0.9c1.7-0.7,3.2-1.3,4.8-1.9c1.8-0.7,2.4-1.8,1.9-3.2  c-0.3-0.9-1-1.3-2-1.3c-0.5,0-1,0.1-1.5,0.3c-1.7,0.6-3.5,1.3-5.3,2C61.5,182.3,60.7,182.6,59.8,183z M19.7,202.7h260.5v22.5H19.7  V202.7z M280.2,280.1H19.8v-22.6h260.3V280.1z M280.3,252.6H19.8v-22.5h260.4V252.6z"></path>	<path d="M246.5,113.7C246.5,113.7,246.5,113.7,246.5,113.7c-0.5,0.6-1.2,1.6-1.6,1.7c-0.5,0-1.4-0.4-2.2-0.7  c-0.2-0.1-0.4-0.2-0.6-0.2c0-0.1-0.1-0.3-0.1-0.3c-2.1-4.9-5.8-7.5-10.7-7.5h-0.2c-4.8,0.1-8.4,2.6-10.6,7.4  c-0.3,0.6-1,1.7-2.1,1.7c-0.3,0-0.6-0.1-0.9-0.2c-1.7-0.7-1.4-2.3-1.2-3.1c1.8-5.8,8.4-10.3,14.9-10.3c6.6,0,13.1,4.5,15,10.3  c0.1,0.3,0.2,0.6,0.2,0.9C246.4,113.4,246.5,113.5,246.5,113.7z"></path>	<path d="M246.5,113.7C246.5,113.7,246.5,113.7,246.5,113.7c-0.5,0.6-1.2,1.6-1.6,1.7c-0.5,0-1.4-0.4-2.2-0.7  c-0.2-0.1-0.4-0.2-0.6-0.2c0-0.1-0.1-0.3-0.1-0.3c-2.1-4.9-5.8-7.5-10.7-7.5h-0.2c-4.8,0.1-8.4,2.6-10.6,7.4  c-0.3,0.6-1,1.7-2.1,1.7c-0.3,0-0.6-0.1-0.9-0.2c-1.7-0.7-1.4-2.3-1.2-3.1c1.8-5.8,8.4-10.3,14.9-10.3c6.6,0,13.1,4.5,15,10.3  c0.1,0.3,0.2,0.6,0.2,0.9C246.4,113.4,246.5,113.5,246.5,113.7z"></path>	<path d="M210.6,145.7c-0.3,1.7-1.9,2-2.9,2c-0.2,0-0.4,0-0.7,0c-5.7-0.6-10.1-5.6-10.2-11.3c0-5.9,4.5-10.9,10.3-11.4  c0.2,0,0.4,0,0.5,0c1,0,2.7,0.3,2.8,2c0.2,1.3-0.8,2.2-2.7,2.5c-4.1,0.7-6.5,3.5-6.3,7c0.2,3.6,2.4,6,6.3,6.6  C209.9,143.5,210.8,144.3,210.6,145.7z"></path>	<path d="M210.6,145.7c-0.3,1.7-1.9,2-2.9,2c-0.2,0-0.4,0-0.7,0c-5.7-0.6-10.1-5.6-10.2-11.3c0-5.9,4.5-10.9,10.3-11.4  c0.2,0,0.4,0,0.5,0c1,0,2.7,0.3,2.8,2c0.2,1.3-0.8,2.2-2.7,2.5c-4.1,0.7-6.5,3.5-6.3,7c0.2,3.6,2.4,6,6.3,6.6  C209.9,143.5,210.8,144.3,210.6,145.7z"></path>	<path d="M47,213.9c0,1.2-0.9,2.1-2.2,2.2c-0.5,0-1,0.1-1.7,0.1c-0.5,0-1,0-1.5,0c-0.5,0-1,0-1.5,0c-0.5,0-1,0-1.6,0  c-0.5,0-1,0-1.5,0c-0.6,0-1.2,0-1.7-0.1c-1.3-0.1-2.2-1-2.2-2.2c0-1.2,0.9-2.2,2.1-2.2c1.6-0.1,3.2-0.1,4.8-0.1  c1.6,0,3.2,0,4.7,0.1C46.4,211.8,47,212.9,47,213.9z"></path>	<path d="M47,213.9c0,1.2-0.9,2.1-2.2,2.2c-0.5,0-1,0.1-1.7,0.1c-0.5,0-1,0-1.5,0c-0.5,0-1,0-1.5,0c-0.5,0-1,0-1.6,0  c-0.5,0-1,0-1.5,0c-0.6,0-1.2,0-1.7-0.1c-1.3-0.1-2.2-1-2.2-2.2c0-1.2,0.9-2.2,2.1-2.2c1.6-0.1,3.2-0.1,4.8-0.1  c1.6,0,3.2,0,4.7,0.1C46.4,211.8,47,212.9,47,213.9z"></path>	<path d="M156.9,214c0,1.2-0.9,2.1-2.3,2.2c-0.5,0-1,0.1-1.7,0.1c-0.5,0-0.9,0-1.4,0c-0.5,0-1,0-1.5,0h-0.1c-0.5,0-1,0-1.5,0  c-0.5,0-0.9,0-1.4,0c-0.6,0-1.1,0-1.6,0c-1.4-0.1-2.4-1-2.3-2.3c0-1.3,0.9-2.1,2.2-2.2c1.5-0.1,3.1-0.1,4.7-0.1c1.5,0,3,0,4.6,0.1  C156,211.8,156.9,212.7,156.9,214z"></path>	<path d="M156.9,214c0,1.2-0.9,2.1-2.3,2.2c-0.5,0-1,0.1-1.7,0.1c-0.5,0-0.9,0-1.4,0c-0.5,0-1,0-1.5,0h-0.1c-0.5,0-1,0-1.5,0  c-0.5,0-0.9,0-1.4,0c-0.6,0-1.1,0-1.6,0c-1.4-0.1-2.4-1-2.3-2.3c0-1.3,0.9-2.1,2.2-2.2c1.5-0.1,3.1-0.1,4.7-0.1c1.5,0,3,0,4.6,0.1  C156,211.8,156.9,212.7,156.9,214z"></path>	<path d="M266.7,213.9c0,1.2-0.9,2.1-2.2,2.2c-0.5,0-1,0.1-1.6,0.1c-0.5,0-1,0-1.5,0c-0.5,0-1,0-1.5,0c-0.5,0-1,0-1.6,0  c-0.5,0-1,0-1.5,0c-0.6,0-1.2,0-1.7-0.1c-1.3-0.1-2.2-1-2.2-2.2c0-1.2,0.9-2.2,2.1-2.2c1.6-0.1,3.2-0.1,4.8-0.1s3.2,0,4.7,0.1  C266,211.8,266.7,212.9,266.7,213.9z"></path>	<path d="M266.7,213.9c0,1.2-0.9,2.1-2.2,2.2c-0.5,0-1,0.1-1.6,0.1c-0.5,0-1,0-1.5,0c-0.5,0-1,0-1.5,0c-0.5,0-1,0-1.6,0  c-0.5,0-1,0-1.5,0c-0.6,0-1.2,0-1.7-0.1c-1.3-0.1-2.2-1-2.2-2.2c0-1.2,0.9-2.2,2.1-2.2c1.6-0.1,3.2-0.1,4.8-0.1s3.2,0,4.7,0.1  C266,211.8,266.7,212.9,266.7,213.9z"></path>	<path d="M47,241.3c0,1.3-0.9,2.2-2.3,2.3c-0.5,0-1,0-1.7,0c-0.5,0-1,0-1.5,0c-0.5,0-1,0-1.5,0c-0.5,0-1,0-1.5,0c-0.5,0-0.9,0-1.4,0  c-0.6,0-1.1,0-1.6-0.1c-1.3-0.1-2.2-1-2.3-2.2c0-1.3,0.9-2.2,2.2-2.3c1.5-0.1,3.1-0.1,4.6-0.1c1.6,0,3.1,0,4.7,0.1  C46.1,239.2,47,240.1,47,241.3z"></path>	<path d="M47,241.3c0,1.3-0.9,2.2-2.3,2.3c-0.5,0-1,0-1.7,0c-0.5,0-1,0-1.5,0c-0.5,0-1,0-1.5,0c-0.5,0-1,0-1.5,0c-0.5,0-0.9,0-1.4,0  c-0.6,0-1.1,0-1.6-0.1c-1.3-0.1-2.2-1-2.3-2.2c0-1.3,0.9-2.2,2.2-2.3c1.5-0.1,3.1-0.1,4.6-0.1c1.6,0,3.1,0,4.7,0.1  C46.1,239.2,47,240.1,47,241.3z"></path>	<path d="M156.9,241.3c0,1.1-0.7,2.2-2.1,2.2c-1.6,0.1-3.1,0.1-4.7,0.1c-1.6,0-3.2,0-4.8-0.1c-1.2-0.1-2.1-1-2.1-2.2  c0-1.2,0.9-2.1,2.2-2.2c0.5,0,1-0.1,1.7-0.1c0.5,0,0.9,0,1.4,0c0.5,0,1,0,1.5,0c0.6,0,1.1,0,1.6,0c0.5,0,1,0,1.5,0  c0.6,0,1.2,0,1.7,0.1C156,239.2,156.8,240.1,156.9,241.3z"></path>	<path d="M156.9,241.3c0,1.1-0.7,2.2-2.1,2.2c-1.6,0.1-3.1,0.1-4.7,0.1c-1.6,0-3.2,0-4.8-0.1c-1.2-0.1-2.1-1-2.1-2.2  c0-1.2,0.9-2.1,2.2-2.2c0.5,0,1-0.1,1.7-0.1c0.5,0,0.9,0,1.4,0c0.5,0,1,0,1.5,0c0.6,0,1.1,0,1.6,0c0.5,0,1,0,1.5,0  c0.6,0,1.2,0,1.7,0.1C156,239.2,156.8,240.1,156.9,241.3z"></path>	<path d="M266.7,241.3c0,1.1-0.7,2.2-2.1,2.2c-1.5,0.1-3.1,0.1-4.7,0.1c-1.6,0-3.2,0-4.8-0.1c-1.2-0.1-2.1-1-2.1-2.2  c0-1.3,0.9-2.2,2.4-2.3c0.5,0,1,0,1.6,0h0.6v0l2.3,0c0.5,0,1,0,1.5,0c0.5,0,1,0,1.5,0c0.6,0,1.2,0,1.7,0.1  C265.8,239.2,266.7,240.1,266.7,241.3z"></path>	<path d="M266.7,241.3c0,1.1-0.7,2.2-2.1,2.2c-1.5,0.1-3.1,0.1-4.7,0.1c-1.6,0-3.2,0-4.8-0.1c-1.2-0.1-2.1-1-2.1-2.2  c0-1.3,0.9-2.2,2.4-2.3c0.5,0,1,0,1.6,0h0.6v0l2.3,0c0.5,0,1,0,1.5,0c0.5,0,1,0,1.5,0c0.6,0,1.2,0,1.7,0.1  C265.8,239.2,266.7,240.1,266.7,241.3z"></path>	<path d="M47,268.7c0,1.3-0.9,2.2-2.3,2.3c-1.5,0.1-3.1,0.1-4.6,0.1c-1.6,0-3.1,0-4.7-0.1c-1.3-0.1-2.1-0.9-2.2-2.2  c0-1.3,0.9-2.2,2.3-2.3c0.5,0,1,0,1.7,0c0.5,0,0.9,0,1.4,0c0.5,0,1,0,1.4,0h0.2c0.4,0,0.9,0,1.3,0c0.4,0,0.9,0,1.3,0  c0.5,0,1,0,1.5,0C46.1,266.6,47,267.4,47,268.7z"></path>	<path d="M47,268.7c0,1.3-0.9,2.2-2.3,2.3c-1.5,0.1-3.1,0.1-4.6,0.1c-1.6,0-3.1,0-4.7-0.1c-1.3-0.1-2.1-0.9-2.2-2.2  c0-1.3,0.9-2.2,2.3-2.3c0.5,0,1,0,1.7,0c0.5,0,0.9,0,1.4,0c0.5,0,1,0,1.4,0h0.2c0.4,0,0.9,0,1.3,0c0.4,0,0.9,0,1.3,0  c0.5,0,1,0,1.5,0C46.1,266.6,47,267.4,47,268.7z"></path>	<path d="M156.9,268.7c0,1.3-0.9,2.2-2.3,2.3c-0.5,0-1,0.1-1.7,0.1c-0.5,0-1,0-1.5,0c-0.5,0-1,0-1.5,0c-0.5,0-1,0-1.5,0  c-0.5,0-0.9,0-1.4,0c-0.6,0-1.1,0-1.6-0.1c-1.4-0.1-2.3-1-2.3-2.3c0-1.3,0.9-2.1,2.2-2.2c1.5-0.1,3.1-0.1,4.6-0.1  c1.5,0,3.1,0,4.6,0.1C155.9,266.6,156.8,267.5,156.9,268.7z"></path>	<path d="M156.9,268.7c0,1.3-0.9,2.2-2.3,2.3c-0.5,0-1,0.1-1.7,0.1c-0.5,0-1,0-1.5,0c-0.5,0-1,0-1.5,0c-0.5,0-1,0-1.5,0  c-0.5,0-0.9,0-1.4,0c-0.6,0-1.1,0-1.6-0.1c-1.4-0.1-2.3-1-2.3-2.3c0-1.3,0.9-2.1,2.2-2.2c1.5-0.1,3.1-0.1,4.6-0.1  c1.5,0,3.1,0,4.6,0.1C155.9,266.6,156.8,267.5,156.9,268.7z"></path>	<path d="M266.7,268.7c0,1.4-0.9,2.2-2.6,2.3c-0.5,0-1.1,0-1.6,0c-0.5,0-1,0-1.5,0c-0.5,0-0.9,0-1.4,0s-0.9,0-1.4,0  c-0.4,0-0.9,0-1.3,0c-0.5,0-1,0-1.5,0c-1.5-0.1-2.4-0.9-2.5-2.2c0-1.3,0.9-2.2,2.3-2.3c1.4-0.1,2.9-0.1,4.5-0.1c1.4,0,3,0,4.5,0.1  C265.7,266.6,266.6,267.4,266.7,268.7z"></path>	<path d="M266.7,268.7c0,1.4-0.9,2.2-2.6,2.3c-0.5,0-1.1,0-1.6,0c-0.5,0-1,0-1.5,0c-0.5,0-0.9,0-1.4,0s-0.9,0-1.4,0  c-0.4,0-0.9,0-1.3,0c-0.5,0-1,0-1.5,0c-1.5-0.1-2.4-0.9-2.5-2.2c0-1.3,0.9-2.2,2.3-2.3c1.4-0.1,2.9-0.1,4.5-0.1c1.4,0,3,0,4.5,0.1  C265.7,266.6,266.6,267.4,266.7,268.7z"></path>	<path d="M86,156.8C85.9,156.9,85.9,156.9,86,156.8c-0.5,0.7-1.1,1.5-1.6,1.8c-2.4,1.3-5.1,2.2-7.7,3.1l-0.4,0.1  c-0.4,0.1-0.7,0.2-1,0.2c-1.2,0-1.7-0.8-2-1.4c-0.6-1.6,0.4-2.5,1.4-2.9c3.4-1.5,6-2.5,8.5-3.3c0.3-0.1,0.5-0.1,0.8-0.1  c0.5,0,0.9,0.2,1.3,0.5C85.6,155.3,85.9,156,86,156.8z"></path>	<path d="M86,156.8C85.9,156.9,85.9,156.9,86,156.8c-0.5,0.7-1.1,1.5-1.6,1.8c-2.4,1.3-5.1,2.2-7.7,3.1l-0.4,0.1  c-0.4,0.1-0.7,0.2-1,0.2c-1.2,0-1.7-0.8-2-1.4c-0.6-1.6,0.4-2.5,1.4-2.9c3.4-1.5,6-2.5,8.5-3.3c0.3-0.1,0.5-0.1,0.8-0.1  c0.5,0,0.9,0.2,1.3,0.5C85.6,155.3,85.9,156,86,156.8z"></path>	<path d="M122,183.7c-0.5,0.4-1,0.6-1.4,0.6c-0.5,0-1-0.2-1.5-0.7c-2.2-2-3.2-4.7-3.5-9.2c0.2-0.4,0.4-0.8,0.5-1.3  c0.7-1.9,1.7-4.2,2.9-6.3c0.3-0.5,0.7-0.8,1.2-0.8c0.4,0,0.8,0.1,1.2,0.3c1.2,0.6,1.5,1.3,1.2,2.6c-0.1,0.5-0.3,1-0.6,1.4  c-2.4,3.9-2.3,7.4,0.5,10.7C123.5,182.1,122.8,183.1,122,183.7z"></path>	<path d="M122,183.7c-0.5,0.4-1,0.6-1.4,0.6c-0.5,0-1-0.2-1.5-0.7c-2.2-2-3.2-4.7-3.5-9.2c0.2-0.4,0.4-0.8,0.5-1.3  c0.7-1.9,1.7-4.2,2.9-6.3c0.3-0.5,0.7-0.8,1.2-0.8c0.4,0,0.8,0.1,1.2,0.3c1.2,0.6,1.5,1.3,1.2,2.6c-0.1,0.5-0.3,1-0.6,1.4  c-2.4,3.9-2.3,7.4,0.5,10.7C123.5,182.1,122.8,183.1,122,183.7z"></path></g></svg>